<svg xmlns="http://www.w3.org/2000/svg" viewBox="0 0 613.72 501.35"><defs><style>.cls-1,.cls-3{fill:#8762a3;}.cls-1,.cls-11,.cls-7{opacity:0.1;}.cls-1,.cls-13,.cls-15,.cls-7,.cls-9{isolation:isolate;}.cls-2{fill:#3f3d56;}.cls-4{fill:#35323e;}.cls-5{fill:#504f60;}.cls-6{fill:#a1616a;}.cls-8{fill:#464353;}.cls-9{opacity:0.04;}.cls-10{fill:#fff;}.cls-12{fill:#fbbebe;}.cls-13{opacity:0.05;}.cls-14{fill:#f86d70;}.cls-15{opacity:0.07;}</style></defs><title>Asset 3</title><g id="Layer_2" data-name="Layer 2"><g id="Layer_1-2" data-name="Layer 1"><g id="Web_1920_1" data-name="Web 1920 1"><g id="Group_3" data-name="Group 3"><g id="undraw_exams_g4ow" data-name="undraw exams g4ow"><path id="Path_2" data-name="Path 2" class="cls-1" d="M598.8,290.64v1.14q-.1,9.86-1.17,19.66v.12l-.18,1.62c-.11.92-.22,1.83-.35,2.75a196.54,196.54,0,0,1-7.2,33h0a177.35,177.35,0,0,1-18.79,41.38q-3.71,5.94-7.87,11.49h0c-1.49,2-3,3.87-4.57,5.76q-1.65,2-3.36,3.9l-.72.79a185.77,185.77,0,0,1-19.35,18.39,303.15,303.15,0,0,1-35.64,24.94c-.7.43-1.4.86-2.11,1.25a.46.46,0,0,1-.15.09,376.08,376.08,0,0,1-51.89,26.52c-19.54,8-39.72,13.83-60.43,16.38-28.86,3.55-58.06.66-86.75-4.3a563.88,563.88,0,0,1-70.56-16.86l-3.81-1.19q-3-.94-5.91-1.92-17.84-5.91-35.28-13.12A463.86,463.86,0,0,1,99.45,417.7q-5-3.36-9.84-6.87-6.78-4.89-13.4-10.05l-2.73-2.12A280,280,0,0,1,41.13,369C27.69,354.33,16.21,337.83,8.66,319Q6.88,314.56,5.39,310l-.1-.31c-.5-1.56-1-3.12-1.38-4.74-.63-2.32-1.17-4.68-1.64-7.06-.1-.45-.19-.91-.27-1.37a117.94,117.94,0,0,1-2-24.31,112.3,112.3,0,0,1,2.5-21.23h0A95.66,95.66,0,0,1,9.6,230h0a75.48,75.48,0,0,1,10.83-16.69h0a64,64,0,0,1,10.2-9.53A83.44,83.44,0,0,1,52.7,192.41h0c3.66-1.31,7.37-2.46,11.1-3.53,2.64-.76,5.29-1.48,7.93-2.2l7.8-2.1c5-1.36,10-2.76,14.91-4.27,13.41-4.1,26.55-9.05,38.71-16.44,1.92-1.17,3.89-2.45,5.85-3.82q3.74-2.61,7.39-5.66h0c2.46-2.06,4.87-4.27,7.17-6.6l1.05-1.09c1.87-2,3.69-4,5.38-6.19.82-1,1.62-2.12,2.38-3.2,1.06-1.5,2.06-3,3-4.61h0c4.63-7.87,7.49-16.55,7.16-25.69a39.81,39.81,0,0,0-.41-4.5c-.81-5.52-1.59-10.9-2.17-16.16-2.41-21.78-1.39-41.52,14.95-60.07C205.2,3.22,237.09-1.48,266.12.36,350,5.66,426.44,53.58,493.58,110.62q8.71,7.39,17.21,15c1.43,1.27,2.86,2.56,4.29,3.85,10.61,9.56,21.06,19.47,30.8,30.1.78.86,1.57,1.72,2.35,2.59.47.53.95,1.06,1.42,1.61q4.54,5.15,8.83,10.55a200.08,200.08,0,0,1,20.19,30.6A173.82,173.82,0,0,1,596.39,259h0a194.27,194.27,0,0,1,2.14,20.71c.1,2,.17,4.09.21,6.13v2C598.8,288.77,598.8,289.7,598.8,290.64Z"/><path id="Path_3" data-name="Path 3" class="cls-2" d="M246,280.17,236,458l10,.13,8.12-180.45Z"/><rect id="Rectangle_1" data-name="Rectangle 1" class="cls-3" x="85.53" y="370.27" width="123.63" height="26.85"/><path id="Path_4" data-name="Path 4" class="cls-2" d="M217.28,394v16.86H89.57Q82.79,406,76.17,400.8V394Z"/><path id="Path_5" data-name="Path 5" class="cls-4" d="M242.78,355.62c-.35,1.62-.8,3.22-1.28,4.81-1.42,4.6-3.12,9.14-3.46,13.92-.44,6.32,1.25,13.67-3.12,18.26-1.12,1.19-2.59,2.07-3.6,3.34a6.9,6.9,0,0,0-.42.63,9.71,9.71,0,0,0-1,5,87.15,87.15,0,0,0,.71,10.83c1.48,12.36,4.4,24.75.56,36.42a57.81,57.81,0,0,1-2.43,5.94c-1.87,4.12-3.92,8.18-4.53,12.65a80.79,80.79,0,0,0-.34,10.08q-3-.94-5.91-1.92-17.83-5.91-35.28-13.11l.09-.52c.89-5.55-.33-11.23-1.82-16.65-3.12-11.49-7.54-22.86-10.16-34.42a87.47,87.47,0,0,1-2.06-13.74c-.07-1-.12-2.08-.12-3.13,0-1.36,0-2.72,0-4.1.14-2.74.25-6-1.94-7.66-1.2-.9-2.8-1.06-4.2-1.61-2.71-1.05-4.56-3.5-6.71-5.46a8.79,8.79,0,0,0-7.86-2.31c-14,3.21-24.35,15.12-37.41,21.14-.51.24-1,.46-1.53.67a22.1,22.1,0,0,0-4.79,2.45,5.46,5.46,0,0,0-2.15,3,11.6,11.6,0,0,0,.12,4.07,20.57,20.57,0,0,1-.28,6.64,20.06,20.06,0,0,1-.67,2.5c-.5,1.48-1.16,2.93-1.8,4.37q-5-3.36-9.84-6.87Q82.8,406,76.18,400.82l-2.68-2.16A279.24,279.24,0,0,1,41.14,369c1.33-3.75,3.26-7.23,4.18-11.07.52-2.2.72-4.5,1.44-6.64a24,24,0,0,1,3.45-6.18A83.7,83.7,0,0,1,69.4,325.85c7.74-5.54,16.67-10,23.64-16.28a37.48,37.48,0,0,0,7.22-8.56,6.25,6.25,0,0,0,.33-.63,13.13,13.13,0,0,0,1.12-3.57c.5-2.8.42-5.87.67-8.55a91,91,0,0,0,25.69.77c10-1.12,19.7-3.88,29.65-5l2.26-.22c3.2-.25,6.39-.31,9.6-.27,2.67,0,5.35.12,8,.21l29.49,1c3.27.11,6.6.23,9.64,1.43a21,21,0,0,1,8.82,7.34c.29.4.59.8.86,1.21a37.94,37.94,0,0,1,4.55,9c.12.33.23.63.33,1,.29.87.53,1.75.75,2.63.17.7.32,1.39.45,2.09a90.7,90.7,0,0,0,2.18,10.33c.08.25.16.49.25.73,1.3,3.66,3.47,6.93,5.1,10.45a39.12,39.12,0,0,1,2.75,24.66Z"/><path id="Path_6" data-name="Path 6" class="cls-3" d="M153.14,132.17c-2.63-2.1-6.45-.57-9.54.79a62.06,62.06,0,0,1-8,2.88,3.44,3.44,0,0,1-1.74.18c-1.25-.3-1.78-1.78-2.7-2.68-1.62-1.56-4.27-1.19-6.35-.34s-4.15,2.06-6.39,1.87-4.45-2-6.86-2c-4.25-.1-7.81,5.13-11.83,3.75-2.45-.85-4.37-4-6.78-3.13-1.87.72-2,3.3-3.17,5-1.33,2-3.92,2.53-6.14,3.4a17.64,17.64,0,0,0-10.7,18c.51,4.12,2.5,7.89,3.81,11.82,3.91,11.42,2.57,24.3,7.5,35.31.62-.58,1-.8,1.58-1.38A14.45,14.45,0,0,0,85,216c.52,1.73,1.37,3.34,2,5a42.91,42.91,0,0,1,1.6,5.8l5.44,24c2.12,9.36,4.25,18.73,4.62,28.32a82.37,82.37,0,0,1-1.43,18.61c9.84-1.63,18.85-6,28.82-5.94A79.72,79.72,0,0,1,137,292.92a224.41,224.41,0,0,0,31.93,2.17,12.75,12.75,0,0,0,4.9-.69,36.58,36.58,0,0,0,3.8-2.38,16.79,16.79,0,0,1,8.55-1.88c13.35-.24,26.22,4.65,39.49,6.37,5.24-11,5.55-24.17,1.53-35.66-1.19-3.42-2.8-6.75-3.27-10.34a52.38,52.38,0,0,1-.15-6.63,48,48,0,0,0-3-16.6c-.77-2.08-1.7-4.2-1.62-6.42s1.17-4.28,2.25-6.24c2.18-4,4.37-8,7.45-11.4s7.1-6.14,11-8.74l9.63-6.47c-1.32-8.32-3-17.09-6.54-24.75s-8.8-14.69-15.94-19.17a53.3,53.3,0,0,0-7.53-3.74,34.91,34.91,0,0,0-11.4-3.12c-4.5-.26-8.93,1-13.37,1.7C180.68,141.28,164.23,141,153.14,132.17Z"/><path id="Path_7" data-name="Path 7" class="cls-2" d="M258.49,276.6l-4.58,5.79-8.64,10.91-10,12.6-2.79,3.53h-5.42l-134,.15-83.95.1H5.33c-.5-1.56-1-3.13-1.39-4.75-.63-2.32-1.17-4.67-1.64-7.06-.1-.45-.19-.91-.27-1.37l30.46-19.91,11.45-.06h0l35-.2h0l19.56-.12h5.81l13-.06h0l99.37-.57h0l5.08,0H224l5.84,0,21.73-.13,4.17-1.59.3.33Z"/><path id="Path_8" data-name="Path 8" class="cls-5" d="M256.62,273.48l-.52.62-3.41,4-7,8.29L231,303.76l-130.37-3.33-98.31-2.5c-.1-.46-.19-.91-.27-1.37a118,118,0,0,1-2-24.31l10.9-5.58,2.5-1.29,19.43-10,17.06-8.74,44.5,5.78,9.85,1.28,4.46.57,6.52.85.55.08,102.32,13.27,11.31,1.46,6.64.86,20.45,2.66Z"/><path id="Path_9" data-name="Path 9" class="cls-2" d="M235.39,303.45l-.11,2.45-.62,13.86-3.36,76.18-.71,16.47-1.87,42.36-1.06,23.92-3.81-1.19c-2-.63-3.95-1.27-5.91-1.93l9.13-166.09.2-3.48,4-1.25Z"/><path id="Path_10" data-name="Path 10" class="cls-2" d="M9.36,303.27l-.28,6.41-.42,9.37Q6.88,314.61,5.39,310l-.09-.3c-.5-1.56-1-3.13-1.39-4.75Z"/><ellipse id="Ellipse_1" data-name="Ellipse 1" class="cls-6" cx="172.64" cy="170.15" rx="28.72" ry="38.71"/><ellipse id="Ellipse_2" data-name="Ellipse 2" class="cls-7" cx="172.64" cy="170.15" rx="28.72" ry="38.71"/><circle id="Ellipse_3" data-name="Ellipse 3" class="cls-6" cx="176.7" cy="146.73" r="39.96"/><path id="Path_11" data-name="Path 11" class="cls-8" d="M177.49,85.14a52.24,52.24,0,0,0-7.25,1.11c-6.32,1.53-11.78,4.94-17.1,8.29-2.38,1.5-4.84,3.07-6.32,5.28-2.66,4-1.63,9-3.12,13.41a38.44,38.44,0,0,1-3.4,6.4c-3.32,5.77-5.05,12.1-6.76,18.38-.35,1.3-.45,3.06,1,3.56a3.87,3.87,0,0,0,2.42-.28c4.48-1.48,10.17-1.9,13.49,1.1s3,8.33,7,10.62c4.53,2.64,11.6-.55,15.7,2.56,1.77,1.34,2.4,3.48,3.84,5.09,3.36,3.75,9.83,3.57,15.2,2.81,3.09-.43,6.87-.73,8.75,1.44.9,1,1.15,2.43,2.2,3.35,1.87,1.68,5.3.83,7.13-.89s2.7-4,4.22-6c3-3.75,8.18-5.79,11.24-9.49,2.56-3.12,3.34-7,4-10.8l2.6-14c1-5.67,2-11.86-1.18-16.86-1.13-1.8-2.76-3.35-3.74-5.21-.66-1.25-1-2.56-1.79-3.74a15.6,15.6,0,0,0-3.2-3.24L216.26,93a52.25,52.25,0,0,0-6.74-5C200.72,82.86,187.54,84.21,177.49,85.14Z"/><path id="Path_12" data-name="Path 12" class="cls-6" d="M45.87,188.08c-1.48,1.57-2.85,3.27-4.44,4.75a52.72,52.72,0,0,1-4.37,3.5q-3.68,2.74-7.18,5.68a40.16,40.16,0,0,0-6.58,6.58c-3.33,4.48-4.91,10-8,14.67-2.76,4.1-6.65,7.34-9.45,11.42a17.69,17.69,0,0,0-2.7,5.66,26.79,26.79,0,0,0-.56,6,45.26,45.26,0,0,0,.57,9.86,14.94,14.94,0,0,0,4.69,8.51c2.36,2,5.4,2.87,8.37,3.62a7.57,7.57,0,0,0,4.66.14,7.69,7.69,0,0,0,2.71-2.29l7.6-8.74c5.09-5.87,10.37-11.87,17.34-15.3,2.19-1.07,4.49-1.87,6.68-2.91,9.29-4.48,15.86-13.64,18.41-23.63.62-2.45,1-4.94,1.43-7.43l1.1-6.83a2.28,2.28,0,0,0,0-1,2.18,2.18,0,0,0-.8-.95,132.44,132.44,0,0,1-14.82-14,35.12,35.12,0,0,0-3.36-3.84c-1.57-1.25-1.46-1.16-3.35,0a40.23,40.23,0,0,0-7.92,6.57Z"/><path id="Path_13" data-name="Path 13" class="cls-2" d="M97.84,233.54a1.16,1.16,0,0,0-1.54-.62,1.18,1.18,0,0,0-.62,1.54s0,.07,0,.1l-.62.31L113.73,273l3.36-1.64L98.47,233.2Z"/><path id="Path_14" data-name="Path 14" class="cls-9" d="M45.87,188.08c-1.48,1.57-2.85,3.27-4.44,4.75a52.72,52.72,0,0,1-4.37,3.5q-3.68,2.74-7.18,5.68a40.16,40.16,0,0,0-6.58,6.58c-3.33,4.48-4.91,10-8,14.67-2.76,4.1-6.65,7.34-9.45,11.42a17.69,17.69,0,0,0-2.7,5.66,26.79,26.79,0,0,0-.56,6,45.26,45.26,0,0,0,.57,9.86,14.94,14.94,0,0,0,4.69,8.51c2.36,2,5.4,2.87,8.37,3.62a7.57,7.57,0,0,0,4.66.14,7.69,7.69,0,0,0,2.71-2.29l7.6-8.74c5.09-5.87,10.37-11.87,17.34-15.3,2.19-1.07,4.49-1.87,6.68-2.91,9.29-4.48,15.86-13.64,18.41-23.63.62-2.45,1-4.94,1.43-7.43l1.1-6.83a2.28,2.28,0,0,0,0-1,2.18,2.18,0,0,0-.8-.95,132.44,132.44,0,0,1-14.82-14,35.12,35.12,0,0,0-3.36-3.84c-1.57-1.25-1.46-1.16-3.35,0a40.23,40.23,0,0,0-7.92,6.57Z"/><path id="Path_15" data-name="Path 15" class="cls-6" d="M261.12,258.41c-.06,4-.22,8.09-1.87,11.72a6.25,6.25,0,0,1-3.47,3.64,8.29,8.29,0,0,1-3.06.12,110.08,110.08,0,0,0-36.52,2.9c3.19-6.37,1.36-14,2.24-21.08.24-1.93.69-3.83.85-5.76.63-6.87-2.31-13.54-3.66-20.32a45.47,45.47,0,0,1,0-17.78,11.88,11.88,0,0,1,1.53-4.28,9.92,9.92,0,0,1,3.51-3c5.06-2.88,11-3.21,16.7-2.83,3.83.26,11.5-.11,14.69,2.25,3.49,2.58,4.6,11.24,5.54,15.24a129.08,129.08,0,0,1,2.87,18.65A199.19,199.19,0,0,1,261.12,258.41Z"/><path id="Path_16" data-name="Path 16" class="cls-10" d="M37.46,272.24l22.47,15,101.16-3.74L94.28,272.24Z"/><path id="Path_17" data-name="Path 17" class="cls-3" d="M67.1,153.17c-3.69,3.25-6.82,7.08-10.32,10.55a142.74,142.74,0,0,1-15.67,12.83,11.67,11.67,0,0,1,8.12,8.18c.23.92.35,1.87.62,2.77a15,15,0,0,0,3.47,5.62c6.33,7.14,15.19,12.42,18.93,21.23a1.92,1.92,0,0,0,.75,1.06,1.52,1.52,0,0,0,1,.11c3.38-.35,6-3.07,8.12-5.72A60.05,60.05,0,0,0,92.7,191.12c2.21-6.86,2.57-14.44.15-21.23a53.78,53.78,0,0,0-4.91-9.58l-4.85-8.06c-.84-1.42-1.91-4.3-3.57-5C76,145.72,69.39,150.88,67.1,153.17Z"/><path id="Path_18" data-name="Path 18" class="cls-3" d="M251,193.53,256.32,206a38.66,38.66,0,0,0-34.9,4.84c-3,2.17-5.8,4.89-7.17,8.35a3.66,3.66,0,0,1-3.62-1.42A7.27,7.27,0,0,1,209.3,214c-.49-4.8,1.32-9.5,3.12-14A20.4,20.4,0,0,1,215.6,194a18.87,18.87,0,0,1,5.44-3.89,120.6,120.6,0,0,1,19.7-8.7c2.87-.93,5.88-.91,7.49,1.77C250.09,186.42,249.55,190.12,251,193.53Z"/><path id="Path_19" data-name="Path 19" class="cls-6" d="M37.59,231c1.33,1.07,2.5,2.32,3.86,3.33a27.34,27.34,0,0,0,4.6,2.58l6.16,3a34.62,34.62,0,0,0,6,2.42c2.64.71,5.4.78,8,1.43,3.34.83,6.39,2.54,9.68,3.54s7.15,1.15,9.89-.91c1.72-1.3,3-3.43,5.15-3.75a6.89,6.89,0,0,1,3.92,1.12l16,8.43c2.16,1.13,4.45,2.4,5.58,4.56s.37,5.46-2,6a21,21,0,0,1-2.5.14,2,2,0,0,0-1.84,1.42,2.91,2.91,0,0,0,.39,1.47,6.12,6.12,0,0,1,.1,5.22,3.72,3.72,0,0,1-4.53,1.87c.28,2.42-2.35,4.11-4.69,4.75-5.91,1.62-12.17.63-18.21-.4a24.61,24.61,0,0,1-6.94-1.87c-1-.51-2-1.15-3-1.62-2.88-1.28-6.15-1.11-9.3-1.06-14.56.26-29-2.44-43.3-5.12-2.65-.5-5.38-1-7.65-2.5-4.37-2.85-6-8.7-5.28-13.87s3.35-9.85,5.92-14.4l3.34-5.88a7.64,7.64,0,0,1,1.8-2.38C23.63,224.75,33.38,227.61,37.59,231Z"/><path id="Path_20" data-name="Path 20" class="cls-9" d="M37.59,231c1.33,1.07,2.5,2.32,3.86,3.33a27.34,27.34,0,0,0,4.6,2.58l6.16,3a34.62,34.62,0,0,0,6,2.42c2.64.71,5.4.78,8,1.43,3.34.83,6.39,2.54,9.68,3.54s7.15,1.15,9.89-.91c1.72-1.3,3-3.43,5.15-3.75a6.89,6.89,0,0,1,3.92,1.12l16,8.43c2.16,1.13,4.45,2.4,5.58,4.56s.37,5.46-2,6a21,21,0,0,1-2.5.14,2,2,0,0,0-1.84,1.42,2.91,2.91,0,0,0,.39,1.47,6.12,6.12,0,0,1,.1,5.22,3.72,3.72,0,0,1-4.53,1.87c.28,2.42-2.35,4.11-4.69,4.75-5.91,1.62-12.17.63-18.21-.4a24.61,24.61,0,0,1-6.94-1.87c-1-.51-2-1.15-3-1.62-2.88-1.28-6.15-1.11-9.3-1.06-14.56.26-29-2.44-43.3-5.12-2.65-.5-5.38-1-7.65-2.5-4.37-2.85-6-8.7-5.28-13.87s3.35-9.85,5.92-14.4l3.34-5.88a7.64,7.64,0,0,1,1.8-2.38C23.63,224.75,33.38,227.61,37.59,231Z"/><path id="Path_21" data-name="Path 21" class="cls-6" d="M228.19,241.79c-3.25,1.53-7,1.68-10.38,2.86s-6.28,3.3-9.4,5c-8.12,4.54-17.49,6.25-26.68,7.88-5.58,1-11.24,2-16.86,1.76-7.61-.33-14.91-2.86-22.28-4.77s-15.23-3.2-22.53-1.05a25.35,25.35,0,0,0-16.55,15.88,36.74,36.74,0,0,0-1.45,14.06c1.54,1.13,3.69-.44,4.53-2.15s1.29-3.83,2.91-4.82c2.82.95,3.5,4.7,5.83,6.56a10.47,10.47,0,0,0,5.22,1.73l9.49,1.35c2.29.32,4.94.54,6.6-1.07.8-.78,1.25-1.87,2-2.71,1.52-1.67,4-2,6.29-1.74,7,.7,13.6,5.25,20.56,4.17a38.4,38.4,0,0,0,6.92-2.2c13.54-4.78,28.59-1.87,42.68-4.61a95.6,95.6,0,0,0,15.67-4.84,31.46,31.46,0,0,0,8-3.95,16.75,16.75,0,0,0,6.47-14.86,17.07,17.07,0,0,0-6-11c-1.1-.93-2.55-2.73-3.86-3.31C232.79,238.86,230.33,240.78,228.19,241.79Z"/><g id="Group_1" data-name="Group 1" class="cls-11"><path id="Path_22" data-name="Path 22" d="M210,162c-1-.93-1.3-2.33-2.2-3.35-1.88-2.17-5.66-1.88-8.75-1.44-5.37.75-11.86.93-15.2-2.81-1.44-1.61-2.07-3.75-3.84-5.09-4.1-3.12-11.17.08-15.7-2.57-3.95-2.3-3.7-7.64-7-10.61s-9-2.58-13.49-1.1a3.87,3.87,0,0,1-2.42.27c-1.42-.5-1.32-2.26-1-3.56,1.7-6.27,3.44-12.61,6.76-18.38a38.74,38.74,0,0,0,3.4-6.39c1.35-4,.66-8.44,2.44-12.18a16.75,16.75,0,0,0-4.93,4.37c-2.66,4-1.63,9-3.12,13.41a38.74,38.74,0,0,1-3.4,6.39c-3.31,5.77-5,12.11-6.75,18.39-.35,1.3-.45,3.06,1,3.56a4,4,0,0,0,2.43-.28c4.47-1.48,10.16-1.9,13.48,1.1s3,8.33,7,10.62c4.52,2.64,11.6-.55,15.7,2.56,1.76,1.34,2.4,3.48,3.84,5.09,3.36,3.75,9.82,3.57,15.2,2.81,3.08-.44,6.86-.73,8.74,1.44.9,1,1.15,2.42,2.2,3.35,1.87,1.67,5.3.82,7.13-.89a19,19,0,0,0,3-4.09A4.64,4.64,0,0,1,210,162Z"/><path id="Path_23" data-name="Path 23" d="M221.32,155.15c-.4.52-.77,1.06-1.12,1.62,2.4-1.71,4.94-3.31,6.74-5.49a13.7,13.7,0,0,0,1.24-1.8C225.69,151.27,223.09,152.91,221.32,155.15Z"/></g><path id="Path_24" data-name="Path 24" class="cls-2" d="M347.47,278.79,349.34,458l8.74-1.25-1.87-177.95Z"/><path id="Path_25" data-name="Path 25" class="cls-2" d="M399.92,311.26l1.87,179.2,8.74-1.25-1.87-177.95Z"/><path id="Path_26" data-name="Path 26" class="cls-2" d="M563.22,401.79h0l0-3.44V396.3l-.33-31.52-.52-49.28-.08-4.25H553.5l0,4.1.27,26.39.12,11.43h0l.1,9.25.16,16,.1,9.44h0v1l.13,12.4.12,10.93.71-.79q1.71-1.9,3.36-3.9Z"/><path id="Path_27" data-name="Path 27" class="cls-3" d="M390.24,340.3l-5,7.46,5,34,42.46,11.62h68.68l41.21,2.49,19.64-13.43-3.4-23.08-15-19.09Z"/><path id="Path_28" data-name="Path 28" class="cls-2" d="M385.25,347.76l-2.5,20.75s-13.11,40.66,92.41,38.17,87.42-10.79,87.42-10.79L562,371.83s3.68,11.39-50,9.85-103.65-6.53-103.65-6.53S389.62,378.47,385.25,347.76Z"/><path id="Path_29" data-name="Path 29" class="cls-12" d="M473.16,161.84c-6,2.74-10.58,8.06-13.63,13.93s-4.77,12.33-6.46,18.74a165.7,165.7,0,0,0-4.5,20.45c-1.65,12.31-.41,25.26,5.24,36.31s16.11,20,28.35,22.12a52.33,52.33,0,0,0,14.36.16A116.45,116.45,0,0,0,521.88,268c8.59-2.9,17.52-7.38,21.34-15.61,2.22-4.78,2.4-10.22,2.3-15.48a164.43,164.43,0,0,0-6.44-42.33c-1.15-4-2.5-8-4.94-11.39s-5.79-5.83-9.21-8.12C510.32,165.21,491.12,153.68,473.16,161.84Z"/><path id="Path_30" data-name="Path 30" class="cls-13" d="M473.16,161.84c-6,2.74-10.58,8.06-13.63,13.93s-4.77,12.33-6.46,18.74a165.7,165.7,0,0,0-4.5,20.45c-1.65,12.31-.41,25.26,5.24,36.31s16.11,20,28.35,22.12a52.33,52.33,0,0,0,14.36.16A116.45,116.45,0,0,0,521.88,268c8.59-2.9,17.52-7.38,21.34-15.61,2.22-4.78,2.4-10.22,2.3-15.48a164.43,164.43,0,0,0-6.44-42.33c-1.15-4-2.5-8-4.94-11.39s-5.79-5.83-9.21-8.12C510.32,165.21,491.12,153.68,473.16,161.84Z"/><path id="Path_31" data-name="Path 31" class="cls-3" d="M466.4,240.44a28.41,28.41,0,0,0,6.24,6.24c5.95,4.11,13.58,4.66,20.79,4.89,5.8.17,12.44-.16,16.08-4.68,1.63-2,2.37-4.63,3-7.16a316.52,316.52,0,0,0,8.68-47.31l16.53.06c7.16,30.63,6.57,62.49,6,94l-.91,45.88-10.65-1.13c-25.29-2.68-50.62-5.36-76.06-5.82a437.72,437.72,0,0,0-44.65,1.47l23.2-69c3-9,6.05-18.05,6.75-27.47,1-13.67-2.81-28.1,2.5-40.74a5,5,0,0,1,1.93-2.6,5.41,5.41,0,0,1,3.3-.26c2.1.28,8.51,0,10,1.34,2.24,2,.76,2.25,0,5.38-1.41,5.62-2.76,10.83-2.74,16.68C456.39,220.82,459.69,232.05,466.4,240.44Z"/><path id="Path_32" data-name="Path 32" class="cls-8" d="M563.22,401.78h0q4.17-5.53,7.87-11.48c-1.25-2.67-2.62-5.28-3.71-8a80.47,80.47,0,0,1-3.59-13l-1-4.5c-3.5-16.3-6.79-32.84-7.47-49.36-.06-1.38-.1-2.75-.12-4.12v-5.14c.08-3.74.32-7.52.75-11.28.08-.74.17-1.47.27-2.21a3.93,3.93,0,0,1,.06-.48l42.46-1.55h0l3.58-.13c2.45-.09,5-.23,7.07-1.62,3.4-2.33,3.8-7.12,3.75-11.24a166.77,166.77,0,0,0-3.53-30.94c-1.61-7.65-3.9-15.48-9.06-21.36C596.35,220.51,590.22,217,588,211c-.82-2.23-1-4.69-2.09-6.82a20.89,20.89,0,0,0-4.47-5.35A75,75,0,0,1,567.16,179c-2.53-5.1-5.27-10.72-8.57-14.24-.16-.18-.32-.35-.49-.51-2.81-2.78-6-4-9.84-2.1a12.57,12.57,0,0,0-1.94,1.21h0a23.72,23.72,0,0,0-3.7,3.52,84.36,84.36,0,0,0-10.08,14.37,79.59,79.59,0,0,0-5.14,11.23,76.33,76.33,0,0,0-2.78,9.37c-.54,2.35-1,4.73-1.3,7.12-1.25,9-1.25,18.11-1.08,27.18.19,8.35.56,16.7,1.31,25q.29,3,.63,6,.69,6,1.7,11.87c.27,1.5.54,3,.85,4.5q.1.6.24,1.2l0,.17a99,99,0,0,1,1.92,10.56c.05.44.09.88.11,1.33a50,50,0,0,1,0,6.12c-.14,2.41-.37,4.81-.48,7.22,0,.42,0,.84,0,1.25,0,1.22,0,2.44,0,3.66a57.46,57.46,0,0,0,1,8.67,56.31,56.31,0,0,0,5.4,15.26c.24.45.48.89.73,1.33,3.16,5.66,7.16,10.85,10.09,16.63a72.35,72.35,0,0,1,5.62,16.37c.41,1.86.81,3.74,1.18,5.62.58,3,1.1,6,1.63,9,.05.3.11.62.16.9.71,4,1.45,8,2.4,11.91.56,2.28,1.18,4.53,1.92,6.74Z"/><path id="Path_33" data-name="Path 33" class="cls-14" d="M554.88,352.57c0,.56,0,1.13-.07,1.69a80.13,80.13,0,0,1-.75,8.19,53.6,53.6,0,0,1-2.7,10.86,36.82,36.82,0,0,1-3.22,6.62,30.84,30.84,0,0,1-4,5.17c-3.75,3.9-9.14,5.14-14.36,6.78a34.79,34.79,0,0,0-6.93,2.83c-.39.21-.78.45-1.15.7l-6.53,4.33a19.57,19.57,0,0,0-5.52,4.73,10,10,0,0,0-.62,1,23.87,23.87,0,0,0-1.92,5.77c-3.4,14.15-6.8,28.31-9.13,42.67-.16,1-.31,1.9-.47,2.86l-.06.3a1.24,1.24,0,0,0-.1-.2,375.37,375.37,0,0,1-51.88,26.51L441.58,451a38.7,38.7,0,0,1-.4-8c.37-4.2,2.08-8.18,2.54-12.37a21.1,21.1,0,0,0-2.23-11.91,12.86,12.86,0,0,1-1.83-4.41,2.74,2.74,0,0,1,2.22-3.19l.13,0a5.76,5.76,0,0,0,1-5.15,15,15,0,0,0-.88-2.86c-1.06-2.61-2.4-5.45-1.49-8.11a3,3,0,0,0,.31-1.56.17.17,0,0,0,0-.1c-.21-.7-1-1-1.47-1.6-.81-1.11,0-2.61.5-3.89a14.71,14.71,0,0,0,.84-4.25c.07-.81.12-1.62.2-2.42a25,25,0,0,1,10.84-17.89c2.43-1.64,5.14-2.83,7.61-4.37a70.64,70.64,0,0,0,7.26-5.62q8.25-6.87,17.15-12.95a215.87,215.87,0,0,1,19.81-12c1.45-.79,2.91-1.55,4.37-2.3s3.18-1.62,4.79-2.37c5.14-2.45,11-1.53,16.67.1,2.39.68,4.74,1.5,7,2.23a32.24,32.24,0,0,1,6.37,2.86c5,3,9.2,7.33,10.93,12.85a.21.21,0,0,1,0,.11A32.58,32.58,0,0,1,554.88,352.57Z"/><path id="Path_34" data-name="Path 34" class="cls-7" d="M554.88,352.57c0,.56,0,1.13-.07,1.69a80.13,80.13,0,0,1-.75,8.19,53.6,53.6,0,0,1-2.7,10.86,36.82,36.82,0,0,1-3.22,6.62,30.84,30.84,0,0,1-4,5.17c-3.75,3.9-9.14,5.14-14.36,6.78a34.79,34.79,0,0,0-6.93,2.83c-.39.21-.78.45-1.15.7l-6.53,4.33a19.57,19.57,0,0,0-5.52,4.73,10,10,0,0,0-.62,1,23.87,23.87,0,0,0-1.92,5.77c-3.4,14.15-6.8,28.31-9.13,42.67-.16,1-.31,1.9-.47,2.86l-.06.3a1.24,1.24,0,0,0-.1-.2,375.37,375.37,0,0,1-51.88,26.51L441.58,451a38.7,38.7,0,0,1-.4-8c.37-4.2,2.08-8.18,2.54-12.37a21.1,21.1,0,0,0-2.23-11.91,12.86,12.86,0,0,1-1.83-4.41,2.74,2.74,0,0,1,2.22-3.19l.13,0a5.76,5.76,0,0,0,1-5.15,15,15,0,0,0-.88-2.86c-1.06-2.61-2.4-5.45-1.49-8.11a3,3,0,0,0,.31-1.56.17.17,0,0,0,0-.1c-.21-.7-1-1-1.47-1.6-.81-1.11,0-2.61.5-3.89a14.71,14.71,0,0,0,.84-4.25c.07-.81.12-1.62.2-2.42a25,25,0,0,1,10.84-17.89c2.43-1.64,5.14-2.83,7.61-4.37a70.64,70.64,0,0,0,7.26-5.62q8.25-6.87,17.15-12.95a215.87,215.87,0,0,1,19.81-12c1.45-.79,2.91-1.55,4.37-2.3s3.18-1.62,4.79-2.37c5.14-2.45,11-1.53,16.67.1,2.39.68,4.74,1.5,7,2.23a32.24,32.24,0,0,1,6.37,2.86c5,3,9.2,7.33,10.93,12.85a.21.21,0,0,1,0,.11A32.58,32.58,0,0,1,554.88,352.57Z"/><path id="Path_35" data-name="Path 35" class="cls-2" d="M495.58,249.15a1.17,1.17,0,1,0-2.15.92l0,.1-.62.31,18.62,38.16,3.37-1.64-18.62-38.19Z"/><circle id="Ellipse_4" data-name="Ellipse 4" class="cls-12" cx="518.87" cy="169.21" r="39.96"/><path id="Path_36" data-name="Path 36" class="cls-8" d="M571.61,144.47a53.57,53.57,0,0,0-1.41-9.42c-2.35-10.1-6.64-20-14-27.28a54.85,54.85,0,0,0-1.63-5.24s0-.09,0-.13a58.46,58.46,0,0,0-9.43-16.71c-2.34-2.91-5.37-5.79-9.11-5.9a7.51,7.51,0,0,1-3.12-.33,5.61,5.61,0,0,1-1.74-1.79,16.37,16.37,0,0,0-15.84-5.93l-.38.08-.63.15-.78.24q.42.71.84,1.44,1.11,2,2.06,4c.52,1.15,1,2.32,1.45,3.5-6.39.73-11.6,5.27-16.35,9.59L490.27,101l-.06.06-.33.31a2.73,2.73,0,0,0-.23.25.3.3,0,0,0-.08.08,4.15,4.15,0,0,0-.27.32,3.75,3.75,0,0,0-.42.62,1.64,1.64,0,0,0-.16.29.93.93,0,0,0-.05.1,2,2,0,0,0-.1.26s0,0,0,0a.88.88,0,0,0-.05.15,1.91,1.91,0,0,0,.11,1.33l7.39.08h.86c0,1,.07,2,.11,3a43.24,43.24,0,0,0-3.37,2.81,37.3,37.3,0,0,0-3.29,3.48A47.86,47.86,0,0,0,479.84,143v3.82c0,.62.05,1.25.1,1.87a4.75,4.75,0,0,0,.63,2.32l.17.22a4.22,4.22,0,0,0,1.33,1l.53.27h0c.27.13.53.25.78.4,2.35,1.33,3.74,3.9,5.89,5.54l.37.27.28.19.18.11.23.13c.16.1.32.18.48.26h0l.3.15h.05c.25.11.5.22.76.31l.36.13.1,0,.31.1.63.17.62.13c.25.05.49.09.74.12l.37.05.38,0c.59.05,1.19.09,1.8.09h0a44.73,44.73,0,0,0,5.66-.39l15.94-1.87c3.61-.42,7.3-.84,10.87-.1,3,.62,5.8,2.06,8.74,3.08.66.23,1.32.44,2,.62l.74.21.35.08.8.2.86.19c.4.09.8.16,1.21.24l.84.15h0l.8.12h.2l.59.08c.29,0,.57.09.87.12.63.08,1.27.14,1.91.2,1,.1,2.06.18,3.12.24l1,.06,1,.05,3.12.14h.58a16.26,16.26,0,0,0,3.88-.2l.66-.16.63-.2a10.71,10.71,0,0,0,5.24-5.17c.25-.47.48-.94.69-1.42s.41-1,.58-1.46.41-1.21.57-1.84c.05-.17.09-.33.13-.51s.12-.52.17-.78c.16-.72.28-1.44.37-2.17a5.35,5.35,0,0,1,.08-.7c.05-.63.1-1.21.12-1.82v-1.4C571.65,145.78,571.61,145.12,571.61,144.47Zm-16-37.28c-.5-.47-1-.93-1.55-1.36a6.51,6.51,0,0,1,1.55,1.36Z"/><path id="Path_37" data-name="Path 37" class="cls-8" d="M442.17,167c-4.7-.58-9.36-2.64-14-1.63-2.9.63-5.4,2.43-7.73,4.29a93.91,93.91,0,0,0-21.71,24.82,13.16,13.16,0,0,0-2,4.7,12.47,12.47,0,0,0,.87,5.79c4.27,12.62,13.4,23.16,17.56,35.82,4.37,13.31,2.85,27.86-.37,41.5a173.48,173.48,0,0,1-19.25,47.89,27.85,27.85,0,0,1-4.44,6.07c-2.27,2.18-5.32,3.74-6.67,6.6a30,30,0,0,0-1.25,4c-1.25,3.75-4.27,7-4.57,10.91-.21,3,1.22,5.87,2.08,8.74a24.06,24.06,0,0,1-.44,15.05c-3.17,8.68-11.44,16.57-9,25.49,5.36-1.54,11.31-3.54,13.84-8.52.89-1.76,1.33-3.86,2.84-5.15,3-2.55,8.11-.24,11.31-2.59,2.41-1.78,2.5-5.44,1.42-8.25s-2.92-5.28-3.75-8.18c-1.43-5.21.87-10.72.44-16.11-.2-2.5-1-4.89-1-7.37-.11-4.83,2.56-9.37,6.12-12.65s7.94-5.45,12.26-7.59L431,322.53c5.93-2.93,12.42-6.51,14.36-12.83a25.69,25.69,0,0,0,.78-7.36c.56-37.78,10-74.8,19.43-111.4a138.62,138.62,0,0,1,5.12-16.81c2.18-5.45,6.43-9.82,8.6-14.87C466.71,157.78,455.23,168.65,442.17,167Z"/><path id="Path_38" data-name="Path 38" class="cls-14" d="M532.22,404c1.44,8.74,2.32,17.67,3,26.56a304.34,304.34,0,0,1-35.64,24.94c-.7.43-1.4.85-2.11,1.25l-.05.3c0-.08-.07-.14-.1-.21a9.42,9.42,0,0,0-4.7-4.63q-6.92-14.52-13.82-29c-2.5-5.22-5-10.5-6.24-16.14a2.33,2.33,0,0,0-.08-.36c-.94-4.37-1.16-8.91-1.8-13.34a37.41,37.41,0,0,0-1.7-7.45c-.74-2.16-1.78-4.25-2.69-6.35a21.35,21.35,0,0,1-2.11-8,5.2,5.2,0,0,0-.38-2.62,6.51,6.51,0,0,0-1.7-1.65,6.52,6.52,0,0,1-2.1-5.94c-3.74.19-5.85,4.22-7.36,7.64a41.73,41.73,0,0,1-5.34,9.36,17.73,17.73,0,0,1-5.92,4.93l-.63.29c-5.21,2.3-11.3,1.48-16.95.45-4.94-.91-10.05-2-14-5.1l-.42-.34a18,18,0,0,1-3.12-3.34c-3.33-4.54-4.8-10.53-5.62-16.23-.08-.54-.15-1.07-.22-1.61a59.59,59.59,0,0,1-.47-12.16c.07-1,.18-2,.31-3,.09-.63.18-1.3.29-2a.06.06,0,0,1,0-.06q.24-1.55.51-3.12c.62-3.54,1.25-7.17,3.12-10.22a19.41,19.41,0,0,1,4.6-4.92c.68-.53,1.37-1,2.07-1.52,1.13-.79,2.3-1.54,3.49-2.25a60.35,60.35,0,0,1,9.36-4.55c.78-.3,1.57-.59,2.35-.85a18.43,18.43,0,0,1,9.54-.76,49.9,49.9,0,0,0,8.55.5c7.32-.14,14.68-1.54,22-2.45,10.15-1.25,21.06-1.4,29.91,3.75.43.24.84.5,1.25.77A37,37,0,0,1,508,325.94c.63.95,1.17,1.91,1.7,2.89a73.91,73.91,0,0,1,3.36,6.94,8.69,8.69,0,0,1,.93,3.74,6,6,0,0,1-.1.74c-.17.89-.51,1.75-.63,2.64-.39,3.4,2.5,6.25,3.58,9.49.7,2.11.62,4.37,1,6.59.57,3.13,2.1,5.94,3.47,8.75a109.67,109.67,0,0,1,5.56,14c1.08,3.33,2,6.71,2.83,10.12.27,1.09.52,2.19.76,3.29C531.17,398.1,531.72,401.06,532.22,404Z"/><path id="Path_39" data-name="Path 39" class="cls-2" d="M598.79,311.57V316l-.81,0h-.9l-10-.12-24.73-.33-6.95-.09-1.8,0-10.42-.13-14.68-.2-31.16-.4-54.07-.7-19.51-.25-7.83-.1-7.21-.1-4.49-.06-4.25-.06-31.52-.4-8.75-.11-1.9,0-1.23-3.19-9-23.17-1.64-4.23,1.25-5,5.62,3.74,3.46.43,56.95,7.08,10.69,1.33,22.67,2.83,22.2,2.76,8.7,1.08,51.5,6.4,14.39,1.79,11.92,1.48,42.36,5.27Z"/><path id="Path_40" data-name="Path 40" class="cls-5" d="M347.16,277.23l11.24,29.35,240.39,5V279.73Z"/><path id="Path_41" data-name="Path 41" class="cls-2" d="M359.65,309.7l1.87,179.2,8.74-1.25L368.39,309.7Z"/><path id="Path_42" data-name="Path 42" class="cls-2" d="M598,315.93h-.9a196.54,196.54,0,0,1-7.2,33L587,315.79l-.12-1.41,10.5-1.21.35,0Z"/><path id="Path_43" data-name="Path 43" class="cls-10" d="M563.82,294.72l-91.47,1.87-28.41-9.37,76.18-4.37Z"/><path id="Path_44" data-name="Path 44" class="cls-12" d="M449.08,258.3a6.18,6.18,0,0,0-2.5,1.78,6.62,6.62,0,0,0-.93,2.84l-1.54,9.16a4.09,4.09,0,0,0,.12,2.54c.4.77,1.56,1.17,2.14.53a8.19,8.19,0,0,0,1.13,5.16c1,1.46,3.23,2.23,4.7,1.21a3,3,0,0,0,4.19,1c.14-.09.27-.19.4-.29-.89.3-1,1.65-.32,2.34a4,4,0,0,0,2.55,1,62.31,62.31,0,0,0,32.4-4.07c1-.4-1.58-12.33-1.83-13.56-.63-2.88-.94-6.39-3.37-8.33-5.81-4.63-16.12-5.54-23.2-5A40,40,0,0,0,449.08,258.3Z"/><path id="Path_45" data-name="Path 45" class="cls-7" d="M542.15,259.69c-22.58.43-45.64.8-67.19-6a45.55,45.55,0,0,1-.41,24.27l105.6,8.75c4.47.36,23,2.46,27.4,1.41s-36.62-14.56-35-18.73c4.55-11.51,19.8-18.26,8.82-18.69C567.54,250.18,556.12,259.43,542.15,259.69Z"/><path id="Path_46" data-name="Path 46" class="cls-8" d="M542.78,260.94c-22.59.43-45.64.8-67.2-6a45.55,45.55,0,0,1-.41,24.27L580.77,288c4.48.37,23,2.5,27.4,1.42s3.34-6.44,5-10.62C617.72,267.27,593,252.41,582,252,568.16,251.43,556.74,260.67,542.78,260.94Z"/><path id="Path_47" data-name="Path 47" class="cls-12" d="M506.87,262.67a6.18,6.18,0,0,1,2.5,1.78,6.62,6.62,0,0,1,.93,2.84l1.54,9.16a4.09,4.09,0,0,1-.12,2.54c-.4.77-1.57,1.17-2.14.53a8.25,8.25,0,0,1-1.13,5.16c-1,1.46-3.22,2.23-4.7,1.21a3,3,0,0,1-4.19,1,4.1,4.1,0,0,1-.4-.29c.88.3.95,1.65.32,2.34a4.15,4.15,0,0,1-2.55,1,62.42,62.42,0,0,1-32.4-4.08c-1-.4,1.57-12.33,1.83-13.56.63-2.88.94-6.39,3.37-8.33,5.8-4.63,16.12-5.54,23.2-5A40,40,0,0,1,506.87,262.67Z"/><path id="Path_48" data-name="Path 48" class="cls-8" d="M357.64,242.78a39.85,39.85,0,0,0-5.49,8.52c-2.56,5.95-2.18,12.68-1.76,19.13a11.25,11.25,0,0,0,1.25,5.34,9,9,0,0,0,3.26,2.78c5.41,3.07,11.74,4,17.92,4.68q14.21,1.57,28.5,1.91c23.62.58,47.59-1.35,70.6,4-2.85-4.32-2.85-10.05-1.25-15s4.65-9.23,7.66-13.46c-10.53-3.33-21.82,1.88-32.85,1.36-11.32-.53-21.8-7.08-33.13-7.07-2.43,0-4.91.31-7.28-.28s-4.66-2.37-4.88-4.8c3,.68,5.89-1.9,7.14-4.74s1.48-6,2.69-8.89c3-7.1,11.16-10.39,16.23-16.23a4,4,0,0,0,.69-5.59,3.47,3.47,0,0,0-.41-.45c-4.21-5.62-10.56-8.74-15.84-13.11-1.84-1.52-5.54-7.27-7.6-7.8-3.82-1-7.06,4.54-9.55,7.23Q374.73,220.78,357.64,242.78Z"/><path id="Path_49" data-name="Path 49" class="cls-15" d="M483.19,241.2a20.76,20.76,0,0,1,4.18,4.14,7.17,7.17,0,0,1,1.3,5.58,8.32,8.32,0,0,1,5.2-8.63Z"/><g id="Group_2" data-name="Group 2" class="cls-11"><path id="Path_50" data-name="Path 50" d="M517.82,77.46a54.08,54.08,0,0,0-2.54-5.72,16.77,16.77,0,0,0-1.82.47,52.52,52.52,0,0,1,2.89,5.51A10.27,10.27,0,0,1,517.82,77.46Z"/><path id="Path_51" data-name="Path 51" d="M554.05,102.08c.16.13.33.29.49.43a.61.61,0,0,0,0-.12Z"/><path id="Path_52" data-name="Path 52" d="M496,104.82c.33-.25.63-.52,1-.77l-.1-3-6.67-.07c-1.08,1-2.23,2.42-1.6,3.75Z"/><path id="Path_53" data-name="Path 53" d="M568.91,154.75a10.67,10.67,0,0,1-5.24,5.17,14.2,14.2,0,0,1-5.72.54c-6.58-.27-13.28-.56-19.5-2.74-2.91-1-5.69-2.45-8.74-3.08-3.56-.74-7.25-.32-10.87.1l-15.93,1.87c-4.7.55-9.94,1-13.7-1.92-2.14-1.65-3.53-4.21-5.88-5.54-1-.56-2.18-.92-2.82-1.87a4.69,4.69,0,0,1-.63-2.32c-.05-.65-.08-1.31-.1-2a54.4,54.4,0,0,0,.1,5.71,4.75,4.75,0,0,0,.63,2.32c.62.94,1.82,1.3,2.81,1.87,2.36,1.32,3.75,3.89,5.89,5.54,3.75,2.88,9,2.5,13.7,1.92l15.93-1.87c3.62-.43,7.31-.84,10.87-.11,3,.63,5.81,2.06,8.74,3.09,6.25,2.18,12.92,2.5,19.5,2.74a14.2,14.2,0,0,0,5.72-.54,10.71,10.71,0,0,0,5.24-5.17,26.66,26.66,0,0,0,2.7-14,24.5,24.5,0,0,1-2.7,10.27Z"/></g><path id="Path_54" data-name="Path 54" class="cls-7" d="M517.64,81.47l8.74,8.12S518.89,86.47,517.64,81.47Z"/></g></g></g></g></g></svg>