<?xml version="1.0" encoding="utf-8"?>
<!-- Generator: Adobe Illustrator 23.0.2, SVG Export Plug-In . SVG Version: 6.00 Build 0)  -->
<svg version="1.1" id="Layer_1" xmlns="http://www.w3.org/2000/svg" xmlns:xlink="http://www.w3.org/1999/xlink" x="0px" y="0px"
	 viewBox="0 0 1920 1080" style="enable-background:new 0 0 1920 1080;" xml:space="preserve">
<style type="text/css">
	.st0{clip-path:url(#SVGID_2_);}
	.st1{fill:#FFFFFF;}
	.st2{fill:#424242;}
	.st3{fill:none;stroke:#707070;}
	.st4{opacity:0.1;fill:#8762A3;enable-background:new    ;}
	.st5{fill:#3F3D56;}
	.st6{fill:#8762A3;}
	.st7{fill:#35323E;}
	.st8{fill:#504F60;}
	.st9{fill:#A1616A;}
	.st10{opacity:0.1;enable-background:new    ;}
	.st11{fill:#464353;}
	.st12{opacity:0.04;enable-background:new    ;}
	.st13{opacity:0.1;}
	.st14{fill:#FBBEBE;}
	.st15{opacity:0.05;enable-background:new    ;}
	.st16{fill:#F86D70;}
	.st17{opacity:0.07;enable-background:new    ;}
	.st18{font-family:'Arial-BoldMT';}
	.st19{font-size:87px;}
	.st20{font-family:'ArialMT';}
	.st21{font-size:35px;}
	.st22{font-size:31px;}
	.st23{font-size:22px;}
</style>
<g>
	<defs>
		<rect id="SVGID_1_" width="1920" height="1080"/>
	</defs>
	<clipPath id="SVGID_2_">
		<use xlink:href="#SVGID_1_"  style="overflow:visible;"/>
	</clipPath>
	<g id="Web_1920_1" class="st0">
		<rect class="st1" width="1920" height="1080"/>
		<g id="Rectangle_5">
			<rect class="st2" width="1920" height="1080"/>
			<rect x="0.5" y="0.5" class="st3" width="1919" height="1079"/>
		</g>
		<path id="Path_55" d="M0,0v1080.78h950L1250,0H0z"/>
		<g id="Group_3" transform="translate(0 25.412)">
			<g id="undraw_exams_g4ow" transform="translate(171.999 159.566)">
				<path id="Path_2" class="st4" d="M598.79,290.67v1.14c-0.07,6.57-0.46,13.12-1.17,19.66c0,0.04,0,0.08,0,0.12
					c-0.06,0.54-0.12,1.08-0.18,1.62c-0.11,0.92-0.22,1.83-0.34,2.75c-1.46,11.17-3.86,22.2-7.2,32.96l0,0
					c-4.47,14.54-10.78,28.45-18.79,41.39c-2.47,3.95-5.09,7.78-7.87,11.48l0,0c-1.49,1.96-3,3.88-4.57,5.76
					c-1.1,1.32-2.22,2.62-3.36,3.9l-0.71,0.79c-6,6.59-12.47,12.74-19.36,18.39c-11.27,9.15-23.18,17.49-35.63,24.94
					c-0.7,0.43-1.4,0.86-2.11,1.25c-0.05,0.04-0.1,0.07-0.16,0.09c-16.58,10.17-33.93,19.03-51.88,26.51
					c-19.54,8.01-39.72,13.84-60.43,16.38c-28.86,3.55-58.07,0.66-86.75-4.3c-23.86-4.1-47.42-9.73-70.56-16.86l-3.81-1.19
					c-1.97-0.63-3.94-1.27-5.91-1.92c-11.89-3.93-23.65-8.3-35.28-13.11c-29.2-12.02-57.1-27-83.26-44.7
					c-3.33-2.24-6.62-4.53-9.85-6.87c-4.52-3.26-8.99-6.61-13.4-10.05l-2.72-2.11c-11.55-9.04-22.37-18.98-32.36-29.71
					c-13.44-14.62-24.92-31.12-32.47-49.95c-1.19-2.96-2.28-5.98-3.27-9.05l-0.09-0.31c-0.5-1.56-0.96-3.12-1.39-4.74
					c-0.62-2.32-1.17-4.67-1.64-7.06c-0.1-0.46-0.19-0.91-0.27-1.37c-1.49-8.01-2.15-16.16-1.97-24.31
					c0.16-7.14,0.99-14.25,2.5-21.23l0,0c1.54-7.24,3.91-14.27,7.07-20.96l0,0c2.86-6.02,6.49-11.63,10.82-16.69l0,0
					c3.04-3.54,6.46-6.73,10.2-9.53c6.75-4.86,14.19-8.68,22.07-11.34l0,0c3.66-1.31,7.37-2.46,11.1-3.53
					c2.64-0.76,5.29-1.49,7.94-2.2l7.79-2.1c5-1.36,9.99-2.76,14.91-4.27c13.41-4.1,26.56-9.05,38.71-16.45
					c1.92-1.17,3.88-2.45,5.84-3.82c2.5-1.73,4.96-3.62,7.39-5.66l0,0c2.46-2.06,4.87-4.26,7.17-6.6c0.36-0.36,0.71-0.72,1.05-1.09
					c1.87-1.97,3.69-4.04,5.38-6.19c0.82-1.05,1.62-2.12,2.39-3.2c1.05-1.5,2.05-3.04,2.98-4.61l0,0
					c4.63-7.87,7.49-16.55,7.16-25.69c-0.05-1.51-0.18-3.01-0.41-4.5c-0.81-5.51-1.59-10.9-2.17-16.16
					c-2.41-21.77-1.39-41.52,14.95-60.07C205.2,3.25,237.08-1.45,266.11,0.39c83.92,5.3,160.32,53.22,227.46,110.26
					c5.81,4.93,11.54,9.92,17.21,14.99c1.43,1.27,2.86,2.56,4.29,3.85c10.61,9.56,21.07,19.48,30.8,30.1
					c0.79,0.86,1.57,1.72,2.35,2.59c0.47,0.54,0.96,1.07,1.42,1.61c3.03,3.43,5.98,6.95,8.84,10.55c7.65,9.56,14.41,19.8,20.18,30.6
					c8.84,16.94,14.83,35.23,17.72,54.12l0,0c1.09,6.86,1.8,13.77,2.14,20.71c0.11,2.04,0.17,4.09,0.21,6.13v1.96
					C598.8,288.8,598.8,289.72,598.79,290.67z"/>
				<path id="Path_3" class="st5" d="M246,280.2l-9.99,177.82l9.99,0.13l8.12-180.45L246,280.2z"/>
				<rect id="Rectangle_1" x="85.53" y="370.3" class="st6" width="123.63" height="26.85"/>
				<path id="Path_4" class="st5" d="M217.28,394.02v16.86H89.57c-4.52-3.26-8.99-6.61-13.4-10.05v-6.81H217.28z"/>
				<path id="Path_5" class="st7" d="M242.78,355.65c-0.35,1.62-0.8,3.22-1.29,4.81c-1.42,4.6-3.12,9.14-3.45,13.92
					c-0.44,6.32,1.25,13.67-3.12,18.26c-1.12,1.19-2.59,2.07-3.6,3.34c-0.15,0.2-0.3,0.41-0.42,0.62c-0.78,1.55-1.13,3.27-1.02,5
					c0.01,3.62,0.25,7.24,0.71,10.83c1.48,12.36,4.4,24.75,0.56,36.42c-0.7,2.02-1.51,4.01-2.43,5.94
					c-1.87,4.12-3.92,8.19-4.53,12.65c-0.33,3.35-0.44,6.72-0.34,10.08c-1.97-0.63-3.94-1.27-5.91-1.92
					c-11.89-3.93-23.65-8.3-35.28-13.11c0.03-0.17,0.06-0.34,0.09-0.51c0.89-5.56-0.33-11.24-1.82-16.66
					c-3.12-11.48-7.54-22.85-10.16-34.42c-1.05-4.52-1.74-9.11-2.06-13.74c-0.08-1.04-0.12-2.08-0.13-3.12
					c-0.03-1.36,0-2.72,0.06-4.1c0.13-2.74,0.25-5.99-1.94-7.66c-1.2-0.91-2.8-1.06-4.2-1.61c-2.71-1.05-4.56-3.5-6.71-5.46
					c-2.08-2.02-5.02-2.88-7.86-2.31c-14.04,3.22-24.35,15.12-37.41,21.14c-0.51,0.24-1.01,0.46-1.52,0.67
					c-1.69,0.62-3.3,1.44-4.79,2.45c-1.05,0.73-1.81,1.8-2.15,3.03c-0.21,1.35-0.17,2.73,0.12,4.07c0.26,2.21,0.17,4.45-0.28,6.64
					c-0.17,0.85-0.39,1.68-0.67,2.5c-0.5,1.48-1.17,2.93-1.8,4.37c-3.33-2.24-6.62-4.53-9.85-6.87c-4.52-3.26-8.99-6.61-13.4-10.05
					l-2.68-2.15c-11.55-9.04-22.37-18.98-32.36-29.72c1.33-3.75,3.25-7.23,4.18-11.07c0.52-2.2,0.72-4.5,1.44-6.64
					c0.84-2.22,2-4.3,3.45-6.18c5.31-7.4,11.79-13.89,19.19-19.21c7.74-5.54,16.67-9.99,23.63-16.28c2.83-2.47,5.26-5.36,7.22-8.56
					c0.12-0.2,0.23-0.41,0.33-0.62c0.54-1.13,0.92-2.33,1.12-3.57c0.5-2.8,0.43-5.87,0.67-8.55c8.48,1.47,17.13,1.73,25.68,0.77
					c9.96-1.12,19.7-3.88,29.66-4.96c0.75-0.09,1.5-0.16,2.26-0.22c3.19-0.26,6.39-0.31,9.59-0.27c2.68,0,5.36,0.12,8.04,0.21
					l29.49,1c3.27,0.11,6.6,0.24,9.64,1.43c3.56,1.58,6.61,4.13,8.82,7.34c0.29,0.4,0.59,0.8,0.86,1.21
					c1.91,2.78,3.43,5.8,4.55,8.98c0.12,0.33,0.23,0.62,0.34,0.98c0.28,0.87,0.52,1.74,0.74,2.63c0.17,0.69,0.32,1.39,0.46,2.09
					c0.52,3.48,1.25,6.94,2.18,10.33c0.08,0.24,0.16,0.49,0.24,0.72c1.3,3.66,3.47,6.94,5.11,10.45c1.18,2.54,2.08,5.21,2.68,7.95
					C243.94,344.44,243.96,350.14,242.78,355.65z"/>
				<path id="Path_6" class="st6" d="M153.14,132.19c-2.64-2.1-6.46-0.56-9.54,0.79c-2.59,1.14-5.25,2.1-7.97,2.88
					c-0.56,0.21-1.16,0.28-1.75,0.18c-1.25-0.3-1.77-1.78-2.7-2.68c-1.62-1.55-4.27-1.19-6.35-0.34s-4.15,2.06-6.38,1.87
					c-2.39-0.19-4.46-1.95-6.87-2c-4.25-0.1-7.81,5.13-11.83,3.75c-2.45-0.84-4.37-4.03-6.78-3.12c-1.87,0.71-2.04,3.3-3.17,5
					c-1.33,1.97-3.92,2.53-6.14,3.4c-7.13,3-11.47,10.3-10.7,18c0.51,4.11,2.5,7.89,3.82,11.81c3.91,11.42,2.57,24.3,7.49,35.32
					c0.62-0.59,0.97-0.8,1.58-1.39c-1.56,3.23-1.86,6.93-0.84,10.36c0.52,1.73,1.36,3.34,2,5.03c0.66,1.9,1.2,3.84,1.6,5.81
					l5.43,23.96c2.12,9.37,4.25,18.73,4.62,28.32c0.23,6.24-0.25,12.48-1.42,18.61c9.84-1.63,18.84-5.99,28.82-5.94
					c3.66,0.13,7.31,0.5,10.91,1.12c10.58,1.48,21.25,2.2,31.93,2.17c1.66,0.1,3.33-0.14,4.9-0.69c1.31-0.72,2.58-1.51,3.8-2.39
					c2.63-1.37,5.58-2.02,8.55-1.87c13.36-0.24,26.23,4.65,39.49,6.37c5.24-11,5.55-24.17,1.53-35.67
					c-1.19-3.42-2.8-6.74-3.27-10.33c-0.19-2.21-0.24-4.42-0.15-6.64c-0.02-5.67-1.04-11.29-3.02-16.6c-0.77-2.08-1.7-4.2-1.62-6.41
					s1.17-4.28,2.25-6.24c2.18-4,4.37-8.03,7.45-11.4c3.15-3.48,7.1-6.14,11-8.74l9.63-6.47c-1.32-8.32-3.02-17.09-6.54-24.74
					s-8.8-14.69-15.94-19.17c-2.41-1.45-4.92-2.7-7.53-3.75c-3.6-1.68-7.45-2.74-11.4-3.12c-4.5-0.26-8.92,0.95-13.36,1.7
					C180.68,141.3,164.23,141.02,153.14,132.19z"/>
				<path id="Path_7" class="st5" d="M258.49,276.63l-4.58,5.79l-8.64,10.91l-9.99,12.61l-2.79,3.52h-5.41l-134.05,0.16L9.07,309.7
					H5.32c-0.5-1.56-0.96-3.12-1.39-4.74c-0.62-2.32-1.17-4.67-1.64-7.06c-0.1-0.46-0.19-0.91-0.27-1.37l30.46-19.91l11.45-0.06l0,0
					l35.03-0.2l0,0l19.56-0.11h5.81l13.04-0.07l0,0l99.37-0.57l0,0l5.08-0.03h2.2l5.84-0.03l21.72-0.13l4.17-1.59l0.31,0.33
					L258.49,276.63z"/>
				<path id="Path_8" class="st8" d="M256.62,273.51l-0.52,0.62l-3.41,4.02l-7.02,8.29l-14.72,17.35l-130.37-3.33l-98.31-2.5
					c-0.1-0.46-0.19-0.91-0.27-1.37c-1.49-8.01-2.15-16.16-1.97-24.31l10.9-5.58l2.5-1.29l19.44-9.99l17.06-8.74l44.49,5.78
					l9.85,1.28l4.46,0.57l6.52,0.85l0.55,0.08l102.32,13.27l11.31,1.47l6.64,0.86l20.45,2.66L256.62,273.51z"/>
				<path id="Path_9" class="st5" d="M235.39,303.48l-0.11,2.45l-0.62,13.85l-3.36,76.18l-0.71,16.47l-1.87,42.36l-1.06,23.92
					l-3.81-1.19c-1.97-0.63-3.94-1.27-5.91-1.92l9.14-166.09l0.19-3.48l4.02-1.25L235.39,303.48z"/>
				<path id="Path_10" class="st5" d="M9.35,303.3l-0.28,6.41l-0.41,9.37c-1.19-2.96-2.28-5.98-3.27-9.05l-0.09-0.31
					c-0.5-1.56-0.96-3.12-1.39-4.74L9.35,303.3z"/>
				<ellipse id="Ellipse_1" class="st9" cx="172.63" cy="170.18" rx="28.72" ry="38.71"/>
				<ellipse id="Ellipse_2" class="st10" cx="172.63" cy="170.18" rx="28.72" ry="38.71"/>
				<circle id="Ellipse_3" class="st9" cx="176.69" cy="146.76" r="39.96"/>
				<path id="Path_11" class="st11" d="M177.49,85.17c-2.44,0.19-4.86,0.56-7.25,1.1c-6.32,1.54-11.78,4.95-17.1,8.29
					c-2.39,1.5-4.84,3.07-6.32,5.28c-2.66,3.96-1.63,9.01-3.12,13.41c-0.93,2.23-2.07,4.37-3.4,6.39
					c-3.32,5.77-5.05,12.11-6.76,18.38c-0.35,1.3-0.45,3.06,0.97,3.56c0.82,0.17,1.67,0.07,2.42-0.27c4.48-1.48,10.17-1.9,13.49,1.1
					s3.04,8.33,6.99,10.62c4.53,2.64,11.6-0.55,15.7,2.57c1.76,1.34,2.4,3.48,3.84,5.09c3.36,3.75,9.82,3.57,15.2,2.81
					c3.08-0.44,6.87-0.73,8.74,1.44c0.9,1.02,1.15,2.43,2.2,3.35c1.87,1.67,5.3,0.82,7.13-0.89s2.7-4.04,4.23-5.97
					c2.97-3.75,8.18-5.79,11.24-9.49c2.56-3.12,3.33-7.03,4.03-10.8l2.6-13.98c1.05-5.67,2.02-11.86-1.17-16.86
					c-1.14-1.8-2.77-3.35-3.75-5.21c-0.66-1.25-1.02-2.57-1.79-3.75c-0.9-1.23-1.98-2.32-3.2-3.23l-6.16-5.1
					c-2.11-1.85-4.36-3.52-6.74-5C200.71,82.88,187.54,84.23,177.49,85.17z"/>
				<path id="Path_12" class="st9" d="M45.86,188.11c-1.48,1.57-2.85,3.27-4.43,4.74c-1.4,1.24-2.85,2.41-4.37,3.5
					c-2.45,1.83-4.84,3.73-7.18,5.69c-2.44,1.93-4.65,4.14-6.58,6.58c-3.33,4.48-4.91,10.05-8.04,14.67
					c-2.76,4.1-6.65,7.34-9.45,11.41c-1.23,1.71-2.15,3.63-2.7,5.66c-0.41,1.97-0.6,3.98-0.56,5.99c-0.18,3.3,0.01,6.6,0.57,9.86
					c0.57,3.28,2.22,6.28,4.69,8.52c2.35,1.97,5.39,2.87,8.37,3.62c1.5,0.53,3.13,0.58,4.66,0.13c1.07-0.54,2-1.32,2.71-2.29
					l7.6-8.74c5.08-5.87,10.37-11.86,17.34-15.3c2.18-1.07,4.49-1.87,6.68-2.91c9.29-4.48,15.86-13.64,18.41-23.63
					c0.62-2.44,1.02-4.93,1.43-7.42l1.1-6.83c0.08-0.34,0.08-0.7,0-1.04c-0.17-0.39-0.45-0.71-0.8-0.95
					c-5.29-4.27-10.25-8.95-14.82-13.99c-1.02-1.36-2.15-2.65-3.36-3.85c-1.57-1.25-1.46-1.15-3.35,0
					C50.87,183.38,48.21,185.59,45.86,188.11L45.86,188.11z"/>
				<path id="Path_13" class="st5" d="M97.84,233.57c-0.25-0.6-0.94-0.87-1.54-0.62c-0.6,0.25-0.87,0.94-0.62,1.54
					c0.01,0.03,0.03,0.07,0.05,0.1l-0.62,0.31l18.62,38.16l3.37-1.64l-18.62-38.19L97.84,233.57z"/>
				<path id="Path_14" class="st12" d="M45.86,188.11c-1.48,1.57-2.85,3.27-4.43,4.74c-1.4,1.24-2.85,2.41-4.37,3.5
					c-2.45,1.83-4.84,3.73-7.18,5.69c-2.44,1.93-4.65,4.14-6.58,6.58c-3.33,4.48-4.91,10.05-8.04,14.67
					c-2.76,4.1-6.65,7.34-9.45,11.41c-1.23,1.71-2.15,3.63-2.7,5.66c-0.41,1.97-0.6,3.98-0.56,5.99c-0.18,3.3,0.01,6.6,0.57,9.86
					c0.57,3.28,2.22,6.28,4.69,8.52c2.35,1.97,5.39,2.87,8.37,3.62c1.5,0.53,3.13,0.58,4.66,0.13c1.07-0.54,2-1.32,2.71-2.29
					l7.6-8.74c5.08-5.87,10.37-11.86,17.34-15.3c2.18-1.07,4.49-1.87,6.68-2.91c9.29-4.48,15.86-13.64,18.41-23.63
					c0.62-2.44,1.02-4.93,1.43-7.42l1.1-6.83c0.08-0.34,0.08-0.7,0-1.04c-0.17-0.39-0.45-0.71-0.8-0.95
					c-5.29-4.27-10.25-8.95-14.82-13.99c-1.02-1.36-2.15-2.65-3.36-3.85c-1.57-1.25-1.46-1.15-3.35,0
					C50.87,183.38,48.21,185.59,45.86,188.11L45.86,188.11z"/>
				<path id="Path_15" class="st9" d="M261.12,258.44c-0.06,3.98-0.22,8.09-1.87,11.72c-0.6,1.65-1.86,2.97-3.47,3.64
					c-1,0.23-2.04,0.27-3.05,0.11c-12.25-1.08-24.59-0.1-36.52,2.9c3.18-6.37,1.36-14.01,2.23-21.07c0.24-1.93,0.69-3.83,0.86-5.76
					c0.62-6.87-2.32-13.54-3.67-20.32c-1.17-5.87-1.17-11.91,0-17.78c0.23-1.51,0.75-2.96,1.53-4.28c0.91-1.28,2.12-2.32,3.51-3.05
					c5.06-2.88,11.02-3.21,16.7-2.83c3.83,0.26,11.5-0.11,14.69,2.25c3.49,2.58,4.6,11.24,5.54,15.24
					c1.41,6.14,2.37,12.37,2.87,18.65C261.04,244.7,261.25,251.57,261.12,258.44z"/>
				<path id="Path_16" class="st1" d="M37.45,272.26l22.48,14.99l101.15-3.75l-66.81-11.24H37.45z"/>
				<path id="Path_17" class="st6" d="M67.09,153.19c-3.69,3.25-6.82,7.09-10.32,10.55c-4.91,4.64-10.15,8.93-15.67,12.83
					c3.96,1.11,7.04,4.21,8.12,8.18c0.24,0.92,0.36,1.87,0.62,2.77c0.73,2.11,1.92,4.02,3.47,5.62
					c6.33,7.14,15.19,12.42,18.93,21.23c0.12,0.43,0.39,0.8,0.75,1.06c0.3,0.13,0.64,0.17,0.97,0.11c3.38-0.36,5.96-3.08,8.12-5.73
					c4.64-5.54,8.23-11.87,10.62-18.68c2.22-6.86,2.57-14.44,0.16-21.23c-1.32-3.35-2.96-6.55-4.91-9.57
					c-1.62-2.69-3.23-5.38-4.85-8.07c-0.84-1.42-1.92-4.3-3.57-5C75.95,145.75,69.38,150.91,67.09,153.19z"/>
				<path id="Path_18" class="st6" d="M251.01,193.55l5.31,12.49c-11.73-4.1-24.72-2.3-34.9,4.84c-3.03,2.17-5.81,4.89-7.17,8.35
					c-1.38,0.26-2.78-0.29-3.61-1.42c-0.8-1.12-1.26-2.45-1.34-3.82c-0.49-4.8,1.32-9.5,3.12-13.98c0.72-2.15,1.8-4.16,3.18-5.94
					c1.56-1.61,3.4-2.93,5.43-3.89c6.29-3.48,12.89-6.39,19.7-8.7c2.87-0.93,5.88-0.91,7.49,1.77
					C250.09,186.45,249.54,190.14,251.01,193.55z"/>
				<path id="Path_19" class="st9" d="M37.58,231.02c1.33,1.06,2.5,2.32,3.87,3.33c1.45,1,2.99,1.87,4.6,2.58l6.16,2.96
					c1.91,0.99,3.9,1.8,5.96,2.42c2.63,0.71,5.4,0.77,8.05,1.43c3.34,0.82,6.39,2.54,9.68,3.53s7.14,1.15,9.89-0.91
					c1.72-1.29,3.02-3.43,5.15-3.75c1.39-0.03,2.76,0.36,3.92,1.12l16.02,8.42c2.16,1.14,4.45,2.4,5.58,4.56
					c1.13,2.16,0.37,5.46-2.01,6.02c-0.83,0.1-1.66,0.14-2.5,0.14c-0.86,0.02-1.6,0.59-1.84,1.42c0,0.52,0.13,1.02,0.39,1.47
					c0.81,1.64,0.84,3.55,0.09,5.22c-0.83,1.67-2.77,2.47-4.53,1.87c0.28,2.42-2.35,4.11-4.69,4.75c-5.91,1.62-12.17,0.62-18.21-0.4
					c-2.39-0.29-4.73-0.92-6.94-1.87c-1.04-0.51-2-1.15-3.05-1.62c-2.88-1.28-6.15-1.11-9.3-1.05c-14.55,0.26-28.99-2.44-43.3-5.13
					c-2.65-0.5-5.38-1.03-7.65-2.5c-4.37-2.85-5.99-8.69-5.28-13.86c0.72-5.17,3.34-9.85,5.92-14.4l3.34-5.89
					c0.44-0.9,1.05-1.71,1.8-2.37C23.63,224.77,33.38,227.64,37.58,231.02z"/>
				<path id="Path_20" class="st12" d="M37.58,231.02c1.33,1.06,2.5,2.32,3.87,3.33c1.45,1,2.99,1.87,4.6,2.58l6.16,2.96
					c1.91,0.99,3.9,1.8,5.96,2.42c2.63,0.71,5.4,0.77,8.05,1.43c3.34,0.82,6.39,2.54,9.68,3.53s7.14,1.15,9.89-0.91
					c1.72-1.29,3.02-3.43,5.15-3.75c1.39-0.03,2.76,0.36,3.92,1.12l16.02,8.42c2.16,1.14,4.45,2.4,5.58,4.56
					c1.13,2.16,0.37,5.46-2.01,6.02c-0.83,0.1-1.66,0.14-2.5,0.14c-0.86,0.02-1.6,0.59-1.84,1.42c0,0.52,0.13,1.02,0.39,1.47
					c0.81,1.64,0.84,3.55,0.09,5.22c-0.83,1.67-2.77,2.47-4.53,1.87c0.28,2.42-2.35,4.11-4.69,4.75c-5.91,1.62-12.17,0.62-18.21-0.4
					c-2.39-0.29-4.73-0.92-6.94-1.87c-1.04-0.51-2-1.15-3.05-1.62c-2.88-1.28-6.15-1.11-9.3-1.05c-14.55,0.26-28.99-2.44-43.3-5.13
					c-2.65-0.5-5.38-1.03-7.65-2.5c-4.37-2.85-5.99-8.69-5.28-13.86c0.72-5.17,3.34-9.85,5.92-14.4l3.34-5.89
					c0.44-0.9,1.05-1.71,1.8-2.37C23.63,224.77,33.38,227.64,37.58,231.02z"/>
				<path id="Path_21" class="st9" d="M228.19,241.81c-3.25,1.54-6.99,1.69-10.38,2.87s-6.28,3.3-9.4,5.03
					c-8.12,4.53-17.48,6.24-26.68,7.87c-5.58,1-11.24,2-16.86,1.76c-7.61-0.33-14.91-2.86-22.28-4.77
					c-7.37-1.91-15.23-3.2-22.53-1.05c-7.73,2.35-13.88,8.25-16.55,15.88c-1.39,4.55-1.89,9.32-1.45,14.06
					c1.54,1.13,3.68-0.44,4.52-2.15s1.29-3.82,2.92-4.82c2.82,0.95,3.5,4.71,5.83,6.56c1.56,1.03,3.36,1.63,5.23,1.73l9.49,1.35
					c2.29,0.33,4.94,0.54,6.59-1.07c0.8-0.78,1.25-1.87,1.99-2.71c1.51-1.67,4.03-1.96,6.28-1.74c7.02,0.7,13.6,5.25,20.57,4.17
					c2.37-0.52,4.68-1.25,6.91-2.2c13.54-4.78,28.59-1.87,42.68-4.61c5.35-1.16,10.59-2.78,15.67-4.84
					c2.83-0.93,5.51-2.26,7.96-3.95c4.57-3.51,7.01-9.13,6.47-14.87c-0.52-4.3-2.67-8.24-6-11.01c-1.1-0.94-2.54-2.73-3.86-3.32
					C232.79,238.89,230.32,240.81,228.19,241.81z"/>
				<g id="Group_1" transform="translate(134.562 94.836)" class="st13">
					<path id="Path_22" d="M75.38,67.21c-1.04-0.92-1.3-2.33-2.2-3.35c-1.87-2.17-5.66-1.87-8.74-1.44
						c-5.38,0.76-11.86,0.93-15.2-2.81c-1.44-1.61-2.08-3.75-3.84-5.09c-4.11-3.12-11.18,0.07-15.7-2.57
						c-3.95-2.3-3.7-7.65-6.99-10.62s-9.01-2.58-13.49-1.1c-0.76,0.35-1.61,0.44-2.42,0.27c-1.42-0.5-1.32-2.26-0.97-3.56
						c1.7-6.27,3.44-12.61,6.76-18.38c1.33-2.02,2.47-4.16,3.4-6.39C17.34,8.22,16.65,3.74,18.42,0c-1.91,1.12-3.59,2.6-4.93,4.37
						c-2.66,3.96-1.63,9.01-3.12,13.41c-0.93,2.23-2.07,4.37-3.4,6.39c-3.32,5.77-5.05,12.11-6.76,18.38
						c-0.35,1.3-0.45,3.06,0.97,3.56c0.82,0.17,1.67,0.07,2.42-0.27c4.48-1.48,10.17-1.9,13.49,1.1s3.04,8.33,6.99,10.61
						c4.53,2.64,11.6-0.55,15.7,2.57c1.76,1.34,2.4,3.48,3.84,5.09c3.36,3.75,9.82,3.57,15.2,2.81c3.08-0.44,6.87-0.73,8.74,1.44
						c0.9,1.02,1.15,2.43,2.2,3.35c1.87,1.67,5.3,0.82,7.13-0.89c1.17-1.22,2.18-2.6,2.98-4.08C78.38,68.43,76.67,68.19,75.38,67.21
						z"/>
					<path id="Path_23" d="M86.76,60.34c-0.4,0.52-0.78,1.06-1.12,1.62c2.4-1.71,4.94-3.31,6.73-5.49c0.47-0.56,0.88-1.17,1.25-1.8
						C91.13,56.46,88.53,58.1,86.76,60.34z"/>
				</g>
				<path id="Path_24" class="st5" d="M347.47,278.82l1.87,179.2l8.74-1.25l-1.87-177.95H347.47z"/>
				<path id="Path_25" class="st5" d="M399.92,311.29l1.87,179.2l8.74-1.25l-1.87-177.95H399.92z"/>
				<path id="Path_26" class="st5" d="M563.21,401.82L563.21,401.82l-0.04-3.44v-2.05l-0.33-31.52l-0.52-49.28l-0.09-4.25h-8.74
					l0.04,4.1l0.28,26.39l0.12,11.43l0,0l0.1,9.25l0.16,16l0.1,9.43l0,0v1l0.13,12.4l0.11,10.93l0.71-0.79
					c1.14-1.28,2.26-2.58,3.36-3.9L563.21,401.82z"/>
				<path id="Path_27" class="st6" d="M390.24,340.32l-5,7.47l5,34.02l42.46,11.62h68.68l41.21,2.49l19.63-13.43l-3.4-23.08
					l-14.98-19.09H390.24z"/>
				<path id="Path_28" class="st5" d="M385.24,347.79l-2.5,20.74c0,0-13.11,40.67,92.41,38.18s87.42-10.79,87.42-10.79l-0.62-24.06
					c0,0,3.68,11.39-49.95,9.85s-103.65-6.53-103.65-6.53S389.61,378.49,385.24,347.79z"/>
				<path id="Path_29" class="st14" d="M473.16,161.87c-6.02,2.74-10.58,8.05-13.63,13.93s-4.77,12.33-6.46,18.73
					c-1.93,6.72-3.43,13.55-4.5,20.45c-1.65,12.31-0.41,25.26,5.24,36.32s16.11,19.98,28.35,22.11c4.76,0.72,9.59,0.78,14.36,0.17
					c8.63-0.91,17.14-2.79,25.36-5.59c8.59-2.9,17.52-7.37,21.34-15.61c2.22-4.78,2.4-10.22,2.3-15.48
					c-0.29-14.33-2.46-28.56-6.44-42.33c-1.16-4-2.5-8.02-4.95-11.39s-5.79-5.83-9.21-8.12
					C510.32,165.24,491.12,153.7,473.16,161.87z"/>
				<path id="Path_30" class="st15" d="M473.16,161.87c-6.02,2.74-10.58,8.05-13.63,13.93s-4.77,12.33-6.46,18.73
					c-1.93,6.72-3.43,13.55-4.5,20.45c-1.65,12.31-0.41,25.26,5.24,36.32s16.11,19.98,28.35,22.11c4.76,0.72,9.59,0.78,14.36,0.17
					c8.63-0.91,17.14-2.79,25.36-5.59c8.59-2.9,17.52-7.37,21.34-15.61c2.22-4.78,2.4-10.22,2.3-15.48
					c-0.29-14.33-2.46-28.56-6.44-42.33c-1.16-4-2.5-8.02-4.95-11.39s-5.79-5.83-9.21-8.12
					C510.32,165.24,491.12,153.7,473.16,161.87z"/>
				<path id="Path_31" class="st6" d="M466.4,240.46c1.74,2.39,3.85,4.5,6.24,6.24c5.94,4.11,13.57,4.66,20.79,4.89
					c5.79,0.17,12.44-0.16,16.07-4.68c1.64-2.04,2.37-4.63,3.03-7.16c4.08-15.53,6.99-31.34,8.68-47.31l16.53,0.06
					c7.16,30.64,6.57,62.49,5.94,93.95l-0.91,45.88l-10.65-1.13c-25.29-2.68-50.63-5.36-76.06-5.82
					c-14.9-0.27-29.81,0.22-44.66,1.47l23.2-68.97c3.01-8.97,6.05-18.05,6.76-27.47c1.02-13.67-2.82-28.1,2.5-40.74
					c0.33-1.06,1.01-1.97,1.93-2.6c1.05-0.42,2.2-0.51,3.3-0.26c2.1,0.28,8.51,0,10.03,1.34c2.25,1.95,0.76,2.24-0.03,5.38
					c-1.42,5.62-2.76,10.82-2.74,16.68C456.39,220.85,459.68,232.08,466.4,240.46z"/>
				<path id="Path_32" class="st11" d="M563.22,401.81L563.22,401.81c2.78-3.7,5.41-7.52,7.87-11.48c-1.25-2.67-2.62-5.28-3.72-8.01
					c-1.56-4.23-2.76-8.59-3.58-13.02c-0.32-1.5-0.65-3-0.97-4.5c-3.5-16.3-6.78-32.84-7.46-49.36c-0.06-1.37-0.1-2.75-0.12-4.12
					v-5.13c0.08-3.75,0.31-7.52,0.74-11.28c0.08-0.74,0.17-1.47,0.28-2.21c0.01-0.16,0.03-0.32,0.06-0.48l42.46-1.55l0,0l3.57-0.13
					c2.45-0.09,5.05-0.23,7.07-1.62c3.4-2.33,3.8-7.12,3.75-11.24c-0.21-10.4-1.39-20.76-3.52-30.94
					c-1.61-7.65-3.91-15.48-9.07-21.36c-4.23-4.83-10.36-8.35-12.57-14.36c-0.82-2.23-1.02-4.69-2.09-6.83
					c-1.19-2.02-2.7-3.83-4.47-5.35c-5.82-5.77-10.66-12.46-14.3-19.81c-2.53-5.1-5.27-10.71-8.57-14.24
					c-0.16-0.18-0.33-0.35-0.49-0.51c-2.81-2.78-6.03-4-9.83-2.1c-0.68,0.34-1.34,0.75-1.95,1.21l0,0c-1.36,1.04-2.6,2.22-3.7,3.52
					c-3.85,4.42-7.22,9.24-10.07,14.36c-2,3.61-3.72,7.37-5.15,11.24c-1.12,3.06-2.05,6.19-2.78,9.37c-0.54,2.35-0.96,4.73-1.3,7.12
					c-1.25,8.97-1.25,18.11-1.07,27.19c0.19,8.34,0.56,16.7,1.31,25.01c0.19,2.01,0.4,4.02,0.63,6.02c0.46,3.97,1.02,7.92,1.7,11.86
					c0.27,1.5,0.54,3.01,0.85,4.51c0.08,0.4,0.16,0.8,0.24,1.19l0.04,0.17c0.82,3.48,1.46,7.01,1.92,10.56
					c0.05,0.45,0.09,0.89,0.11,1.33c0.11,2.04,0.09,4.09-0.05,6.13c-0.14,2.41-0.37,4.81-0.48,7.22c0.01,0.42-0.01,0.83-0.04,1.25
					c-0.03,1.22,0,2.43,0,3.65c0.13,2.91,0.47,5.81,1.04,8.67c1.05,5.32,2.87,10.46,5.4,15.26c0.24,0.45,0.48,0.89,0.72,1.33
					c3.17,5.66,7.16,10.85,10.09,16.63c2.53,5.21,4.41,10.7,5.62,16.36c0.42,1.87,0.81,3.74,1.19,5.62c0.58,3,1.1,6.02,1.63,9.04
					c0.05,0.3,0.11,0.62,0.16,0.9c0.71,4.01,1.45,8,2.4,11.91c0.56,2.28,1.18,4.53,1.91,6.74L563.22,401.81z"/>
				<path id="Path_33" class="st16" d="M554.87,352.6c0,0.56-0.04,1.12-0.06,1.69c-0.11,2.74-0.36,5.47-0.76,8.19
					c-0.52,3.7-1.42,7.34-2.7,10.86c-0.85,2.31-1.93,4.53-3.22,6.63c-1.15,1.86-2.49,3.59-4.01,5.16c-3.75,3.9-9.14,5.14-14.36,6.78
					c-2.4,0.7-4.72,1.64-6.92,2.83c-0.39,0.22-0.78,0.46-1.16,0.71l-6.53,4.33c-2.12,1.22-3.99,2.82-5.51,4.73
					c-0.23,0.34-0.44,0.69-0.62,1.05c-0.88,1.83-1.53,3.77-1.92,5.77c-3.4,14.15-6.8,28.31-9.13,42.67
					c-0.16,0.95-0.31,1.9-0.47,2.86l-0.06,0.3c-0.03-0.07-0.06-0.14-0.1-0.21c-16.58,10.17-33.93,19.04-51.89,26.52l-3.88-32.47
					c-0.4-2.64-0.54-5.31-0.4-7.98c0.37-4.2,2.08-8.19,2.54-12.38c0.44-4.1-0.34-8.24-2.23-11.91c-0.88-1.35-1.5-2.84-1.83-4.41
					c-0.27-1.49,0.72-2.92,2.22-3.19c0.04-0.01,0.09-0.01,0.13-0.02c1.25-1.39,1.35-3.28,0.98-5.15c-0.2-0.98-0.49-1.93-0.87-2.85
					c-1.06-2.61-2.4-5.45-1.49-8.12c0.24-0.48,0.35-1.02,0.31-1.56c0.01-0.03,0.01-0.07,0-0.1c-0.21-0.7-1.04-1.01-1.47-1.6
					c-0.81-1.1,0-2.61,0.5-3.88c0.49-1.37,0.77-2.8,0.84-4.25c0.07-0.81,0.12-1.62,0.21-2.42c0.12-1.08,0.32-2.15,0.58-3.21
					c1.52-5.98,5.16-11.2,10.26-14.69c2.43-1.64,5.13-2.83,7.61-4.37c2.54-1.71,4.96-3.59,7.26-5.62c5.5-4.58,11.22-8.9,17.15-12.95
					c6.38-4.36,12.99-8.37,19.81-12.03c1.46-0.79,2.91-1.55,4.37-2.3c1.59-0.83,3.18-1.62,4.79-2.37c5.15-2.45,10.98-1.54,16.67,0.1
					c2.39,0.68,4.74,1.49,7.01,2.23c2.22,0.72,4.35,1.68,6.37,2.86c5.04,2.96,9.2,7.33,10.93,12.85c0,0.04,0,0.07,0,0.11
					C554.77,345.31,555.12,348.96,554.87,352.6z"/>
				<path id="Path_34" class="st10" d="M554.87,352.6c0,0.56-0.04,1.12-0.06,1.69c-0.11,2.74-0.36,5.47-0.76,8.19
					c-0.52,3.7-1.42,7.34-2.7,10.86c-0.85,2.31-1.93,4.53-3.22,6.63c-1.15,1.86-2.49,3.59-4.01,5.16c-3.75,3.9-9.14,5.14-14.36,6.78
					c-2.4,0.7-4.72,1.64-6.92,2.83c-0.39,0.22-0.78,0.46-1.16,0.71l-6.53,4.33c-2.12,1.22-3.99,2.82-5.51,4.73
					c-0.23,0.34-0.44,0.69-0.62,1.05c-0.88,1.83-1.53,3.77-1.92,5.77c-3.4,14.15-6.8,28.31-9.13,42.67
					c-0.16,0.95-0.31,1.9-0.47,2.86l-0.06,0.3c-0.03-0.07-0.06-0.14-0.1-0.21c-16.58,10.17-33.93,19.04-51.89,26.52l-3.88-32.47
					c-0.4-2.64-0.54-5.31-0.4-7.98c0.37-4.2,2.08-8.19,2.54-12.38c0.44-4.1-0.34-8.24-2.23-11.91c-0.88-1.35-1.5-2.84-1.83-4.41
					c-0.27-1.49,0.72-2.92,2.22-3.19c0.04-0.01,0.09-0.01,0.13-0.02c1.25-1.39,1.35-3.28,0.98-5.15c-0.2-0.98-0.49-1.93-0.87-2.85
					c-1.06-2.61-2.4-5.45-1.49-8.12c0.24-0.48,0.35-1.02,0.31-1.56c0.01-0.03,0.01-0.07,0-0.1c-0.21-0.7-1.04-1.01-1.47-1.6
					c-0.81-1.1,0-2.61,0.5-3.88c0.49-1.37,0.77-2.8,0.84-4.25c0.07-0.81,0.12-1.62,0.21-2.42c0.12-1.08,0.32-2.15,0.58-3.21
					c1.52-5.98,5.16-11.2,10.26-14.69c2.43-1.64,5.13-2.83,7.61-4.37c2.54-1.71,4.96-3.59,7.26-5.62c5.5-4.58,11.22-8.9,17.15-12.95
					c6.38-4.36,12.99-8.37,19.81-12.03c1.46-0.79,2.91-1.55,4.37-2.3c1.59-0.83,3.18-1.62,4.79-2.37c5.15-2.45,10.98-1.54,16.67,0.1
					c2.39,0.68,4.74,1.49,7.01,2.23c2.22,0.72,4.35,1.68,6.37,2.86c5.04,2.96,9.2,7.33,10.93,12.85c0,0.04,0,0.07,0,0.11
					C554.77,345.31,555.12,348.96,554.87,352.6z"/>
				<path id="Path_35" class="st5" d="M495.58,249.18c-0.25-0.6-0.94-0.87-1.54-0.62c-0.6,0.25-0.87,0.94-0.62,1.54
					c0.01,0.03,0.03,0.07,0.05,0.1l-0.62,0.31l18.62,38.16l3.36-1.64l-18.62-38.19L495.58,249.18z"/>
				<circle id="Ellipse_4" class="st14" cx="518.86" cy="169.24" r="39.96"/>
				<path id="Path_36" class="st11" d="M571.61,144.5c-0.19-3.18-0.66-6.33-1.41-9.42c-2.35-10.1-6.64-20.04-14.02-27.29
					c-0.46-1.77-1-3.52-1.63-5.24c-0.01-0.04-0.03-0.08-0.04-0.13c-2.2-6.05-5.39-11.7-9.43-16.71c-2.34-2.91-5.38-5.78-9.11-5.89
					c-1.05,0.11-2.12,0-3.12-0.34c-0.71-0.46-1.3-1.07-1.74-1.79c-3.77-4.76-9.87-7.04-15.84-5.93l-0.39,0.08
					c-0.22,0.04-0.44,0.09-0.63,0.15s-0.52,0.15-0.79,0.23c0.29,0.47,0.57,0.96,0.84,1.44c0.74,1.32,1.43,2.67,2.06,4.05
					c0.52,1.15,1.01,2.32,1.46,3.5c-6.39,0.73-11.6,5.27-16.36,9.59l-11.2,10.16c-0.02,0.02-0.04,0.04-0.06,0.06l-0.33,0.31
					c-0.08,0.08-0.16,0.16-0.24,0.25c-0.03,0.03-0.06,0.06-0.08,0.09c-0.09,0.1-0.18,0.21-0.27,0.31c-0.16,0.2-0.3,0.41-0.42,0.62
					c-0.06,0.09-0.12,0.19-0.16,0.29c-0.02,0.03-0.03,0.06-0.04,0.09c-0.04,0.09-0.08,0.17-0.11,0.26c0,0.01,0,0.02,0,0.04
					c-0.02,0.05-0.03,0.1-0.04,0.16c-0.13,0.44-0.09,0.91,0.11,1.32l7.39,0.08h0.87c0.04,0.99,0.07,1.98,0.11,2.97
					c-1.17,0.88-2.3,1.82-3.37,2.81c-1.17,1.08-2.27,2.24-3.29,3.47c-6.58,8.22-10.26,18.38-10.49,28.91v3.82
					c0,0.62,0.06,1.25,0.11,1.87c0,0.81,0.22,1.61,0.62,2.32c0.05,0.08,0.11,0.15,0.17,0.23c0.37,0.41,0.82,0.74,1.32,0.97
					l0.54,0.26l0,0c0.27,0.13,0.53,0.26,0.77,0.4c2.35,1.33,3.75,3.9,5.89,5.54c0.13,0.09,0.25,0.19,0.38,0.27l0.28,0.19l0.17,0.11
					l0.24,0.14c0.16,0.09,0.32,0.18,0.48,0.26l0,0l0.3,0.15h0.05c0.25,0.11,0.5,0.22,0.76,0.31l0.36,0.13l0.11,0.04
					c0.1,0.03,0.21,0.07,0.31,0.09c0.21,0.06,0.42,0.12,0.62,0.17l0.62,0.14c0.24,0.04,0.49,0.09,0.74,0.12l0.37,0.05l0.38,0.04
					c0.6,0.05,1.2,0.09,1.8,0.09l0,0c1.89-0.01,3.79-0.14,5.66-0.39l15.93-1.87c3.61-0.42,7.31-0.84,10.87-0.1
					c3.02,0.62,5.81,2.06,8.74,3.08c0.66,0.23,1.32,0.44,1.99,0.62c0.24,0.07,0.49,0.14,0.74,0.21l0.34,0.09l0.8,0.19
					c0.29,0.07,0.57,0.14,0.86,0.19c0.41,0.09,0.8,0.16,1.21,0.24c0.28,0.06,0.56,0.1,0.84,0.15h0.06l0.8,0.13h0.19l0.59,0.08
					c0.29,0.04,0.57,0.08,0.87,0.11c0.64,0.08,1.27,0.15,1.91,0.21c1.03,0.1,2.07,0.18,3.12,0.24l1.04,0.06l1.04,0.05l3.12,0.14
					h0.57c1.3,0.09,2.6,0.02,3.88-0.2c0.22-0.04,0.44-0.09,0.66-0.16s0.4-0.13,0.62-0.2c2.3-1.05,4.16-2.88,5.24-5.18
					c0.25-0.47,0.48-0.94,0.69-1.42s0.41-0.97,0.58-1.46c0.22-0.62,0.41-1.22,0.57-1.84c0.05-0.17,0.09-0.34,0.13-0.51
					s0.13-0.52,0.17-0.78c0.16-0.72,0.28-1.44,0.36-2.17c0.01-0.23,0.04-0.47,0.08-0.7c0.06-0.62,0.1-1.21,0.13-1.82v-1.4
					C571.65,145.81,571.61,145.14,571.61,144.5z M555.6,107.22c-0.51-0.48-1.02-0.93-1.55-1.36
					C554.63,106.23,555.15,106.69,555.6,107.22L555.6,107.22z"/>
				<path id="Path_37" class="st11" d="M442.17,167.04c-4.7-0.58-9.37-2.64-14.01-1.63c-2.9,0.62-5.4,2.43-7.72,4.28
					c-8.64,6.93-15.99,15.33-21.71,24.82c-0.97,1.42-1.65,3.02-2,4.7c-0.18,1.97,0.12,3.96,0.86,5.79
					c4.27,12.62,13.41,23.16,17.56,35.82c4.37,13.31,2.85,27.86-0.37,41.5c-3.99,16.83-10.48,32.98-19.26,47.89
					c-1.19,2.22-2.68,4.26-4.43,6.07c-2.27,2.18-5.33,3.75-6.67,6.61c-0.51,1.31-0.93,2.64-1.25,4.01
					c-1.25,3.75-4.27,6.96-4.56,10.91c-0.22,3.02,1.21,5.87,2.08,8.74c1.46,4.93,1.31,10.21-0.44,15.05
					c-3.17,8.68-11.45,16.57-9.04,25.49c5.36-1.54,11.31-3.55,13.84-8.52c0.89-1.76,1.34-3.86,2.84-5.15
					c3-2.55,8.12-0.24,11.31-2.59c2.41-1.79,2.5-5.45,1.42-8.26s-2.92-5.28-3.75-8.17c-1.44-5.21,0.86-10.73,0.44-16.12
					c-0.2-2.5-0.97-4.89-1.02-7.37c-0.11-4.83,2.57-9.37,6.12-12.64s7.94-5.45,12.26-7.59l16.33-8.12
					c5.93-2.93,12.42-6.51,14.36-12.83c0.61-2.4,0.87-4.88,0.78-7.36c0.56-37.78,10.02-74.8,19.43-111.4
					c1.35-5.71,3.06-11.32,5.12-16.81c2.17-5.45,6.42-9.82,8.59-14.87C466.71,157.81,455.23,168.68,442.17,167.04z"/>
				<path id="Path_38" class="st16" d="M532.21,404.07c1.44,8.74,2.32,17.67,3.01,26.56c-11.27,9.15-23.18,17.49-35.63,24.94
					c-0.7,0.43-1.4,0.85-2.11,1.25l-0.06,0.3c-0.03-0.07-0.06-0.14-0.1-0.21c-0.96-2.06-2.62-3.71-4.7-4.63
					c-4.61-9.68-9.21-19.36-13.81-29.03c-2.5-5.23-5-10.5-6.24-16.14c-0.02-0.12-0.04-0.24-0.08-0.36
					c-0.95-4.37-1.17-8.91-1.8-13.34c-0.32-2.54-0.89-5.03-1.7-7.46c-0.75-2.15-1.78-4.25-2.69-6.35c-1.23-2.51-1.94-5.24-2.11-8.03
					c0.1-0.89-0.03-1.79-0.38-2.62c-0.47-0.64-1.04-1.2-1.7-1.65c-1.68-1.49-2.47-3.73-2.1-5.94c-3.75,0.19-5.86,4.22-7.36,7.64
					c-1.37,3.34-3.16,6.49-5.34,9.37c-1.59,2.06-3.61,3.74-5.92,4.93c-0.21,0.1-0.41,0.2-0.62,0.29c-5.21,2.3-11.3,1.49-16.95,0.45
					c-4.94-0.91-10.05-2.03-14.02-5.1l-0.42-0.34c-1.18-0.98-2.22-2.1-3.12-3.33c-3.33-4.55-4.8-10.53-5.62-16.23
					c-0.08-0.54-0.15-1.07-0.22-1.61c-0.57-4.03-0.72-8.1-0.47-12.16c0.08-1,0.18-2,0.31-2.99c0.09-0.62,0.18-1.3,0.29-1.95
					c0-0.02,0-0.04,0-0.06c0.16-1.03,0.34-2.07,0.51-3.12c0.62-3.54,1.25-7.17,3.12-10.22c1.23-1.9,2.79-3.56,4.6-4.92
					c0.67-0.53,1.37-1.04,2.07-1.52c1.14-0.79,2.3-1.54,3.49-2.24c2.98-1.79,6.12-3.31,9.37-4.56c0.77-0.3,1.56-0.58,2.35-0.85
					c3.06-1.09,6.35-1.35,9.54-0.76c2.83,0.41,5.69,0.58,8.54,0.5c7.32-0.14,14.68-1.54,21.99-2.45c10.15-1.25,21.06-1.4,29.91,3.75
					c0.42,0.24,0.84,0.5,1.25,0.77c4.34,2.97,8,6.84,10.73,11.34c0.63,0.94,1.17,1.91,1.7,2.89c1.24,2.25,2.36,4.56,3.35,6.93
					c0.59,1.16,0.91,2.44,0.93,3.75c-0.01,0.25-0.05,0.49-0.1,0.74c-0.17,0.89-0.51,1.75-0.62,2.65c-0.39,3.4,2.5,6.24,3.58,9.48
					c0.7,2.11,0.62,4.37,1.02,6.59c0.57,3.12,2.1,5.93,3.47,8.74c2.17,4.52,4.03,9.19,5.56,13.97c1.09,3.33,2.02,6.71,2.84,10.11
					c0.27,1.09,0.52,2.19,0.76,3.29C531.16,398.13,531.72,401.09,532.21,404.07z"/>
				<path id="Path_39" class="st5" d="M598.79,311.6v4.37l-0.81-0.01l-0.9-0.01l-10.04-0.13l-24.74-0.33l-6.94-0.09l-1.8-0.02
					l-10.42-0.13l-14.69-0.19l-31.16-0.41l-54.07-0.7l-19.51-0.25l-7.83-0.1l-7.21-0.09l-4.49-0.06l-4.25-0.06l-31.53-0.41
					l-8.74-0.11l-1.9-0.02l-1.24-3.19l-8.98-23.17l-1.64-4.23l1.25-5l5.62,3.75l3.46,0.43l56.95,7.08l10.69,1.33l22.67,2.82
					l22.2,2.76l8.7,1.08l51.51,6.41l14.39,1.79l11.91,1.48l42.36,5.27L598.79,311.6z"/>
				<path id="Path_40" class="st8" d="M347.15,277.26l11.24,29.35l240.39,5v-31.85L347.15,277.26z"/>
				<path id="Path_41" class="st5" d="M359.64,309.73l1.87,179.2l8.74-1.25l-1.87-177.95H359.64z"/>
				<path id="Path_42" class="st5" d="M597.98,315.95h-0.9c-1.46,11.17-3.86,22.2-7.2,32.96l-2.84-33.09l-0.12-1.41l10.5-1.21
					l0.35-0.04L597.98,315.95z"/>
				<path id="Path_43" class="st1" d="M563.82,294.74l-91.47,1.87l-28.41-9.37l76.18-4.37L563.82,294.74z"/>
				<path id="Path_44" class="st14" d="M449.08,258.33c-0.97,0.37-1.83,0.98-2.5,1.78c-0.52,0.86-0.84,1.83-0.93,2.83l-1.54,9.16
					c-0.23,0.84-0.19,1.73,0.12,2.54c0.4,0.77,1.56,1.17,2.14,0.53c-0.2,1.8,0.19,3.61,1.12,5.16c1.04,1.46,3.23,2.23,4.7,1.21
					c0.88,1.43,2.76,1.88,4.19,1c0.14-0.09,0.27-0.18,0.4-0.29c-0.89,0.3-0.95,1.65-0.32,2.34c0.71,0.62,1.61,0.98,2.55,1.02
					c10.97,1.55,22.16,0.14,32.41-4.08c0.97-0.4-1.58-12.33-1.84-13.56c-0.62-2.88-0.94-6.39-3.36-8.33
					c-5.81-4.63-16.12-5.55-23.2-5C458.19,255.03,453.46,256.27,449.08,258.33z"/>
				<path id="Path_45" class="st10" d="M542.15,259.71c-22.58,0.43-45.64,0.8-67.19-5.96c2.06,7.98,1.92,16.37-0.41,24.27
					l105.6,8.74c4.48,0.37,23.04,2.47,27.4,1.41s-36.62-14.55-34.97-18.73c4.55-11.51,19.8-18.25,8.82-18.68
					C567.54,250.21,556.12,259.45,542.15,259.71z"/>
				<path id="Path_46" class="st11" d="M542.77,260.96c-22.58,0.43-45.64,0.8-67.19-5.96c2.06,7.98,1.92,16.37-0.41,24.27
					l105.6,8.74c4.48,0.37,23.04,2.5,27.4,1.41s3.34-6.44,5-10.61c4.55-11.51-20.16-26.37-31.15-26.8
					C568.16,251.46,556.74,260.7,542.77,260.96z"/>
				<path id="Path_47" class="st14" d="M506.86,262.7c0.97,0.37,1.83,0.98,2.5,1.78c0.52,0.86,0.84,1.83,0.94,2.83l1.54,9.16
					c0.23,0.84,0.19,1.73-0.12,2.54c-0.4,0.77-1.57,1.17-2.14,0.53c0.2,1.8-0.19,3.61-1.12,5.16c-1.04,1.46-3.23,2.23-4.71,1.21
					c-0.88,1.43-2.76,1.88-4.19,1c-0.14-0.09-0.27-0.18-0.4-0.29c0.89,0.3,0.96,1.65,0.33,2.34c-0.71,0.62-1.61,0.98-2.55,1.02
					c-10.97,1.55-22.15,0.14-32.4-4.08c-0.97-0.4,1.57-12.33,1.84-13.56c0.62-2.88,0.94-6.39,3.36-8.33c5.8-4.63,16.12-5.55,23.2-5
					C497.76,259.4,502.48,260.64,506.86,262.7z"/>
				<path id="Path_48" class="st11" d="M357.63,242.81c-2.18,2.59-4.03,5.46-5.49,8.52c-2.55,5.94-2.18,12.67-1.76,19.13
					c-0.03,1.86,0.4,3.69,1.25,5.34c0.85,1.17,1.97,2.13,3.26,2.78c5.41,3.07,11.74,3.99,17.92,4.68c9.47,1.05,18.97,1.69,28.5,1.92
					c23.61,0.57,47.59-1.36,70.6,4c-2.85-4.33-2.84-10.05-1.25-14.99s4.66-9.23,7.66-13.46c-10.53-3.33-21.82,1.87-32.84,1.36
					c-11.32-0.53-21.8-7.07-33.13-7.07c-2.43,0-4.91,0.31-7.28-0.28s-4.66-2.37-4.88-4.8c3.02,0.68,5.89-1.9,7.14-4.74
					s1.47-6.04,2.68-8.89c3.02-7.1,11.16-10.39,16.23-16.23c1.73-1.35,2.04-3.85,0.69-5.58c-0.12-0.16-0.26-0.31-0.41-0.45
					c-4.22-5.62-10.57-8.74-15.84-13.11c-1.84-1.52-5.54-7.27-7.6-7.8c-3.82-0.98-7.06,4.54-9.55,7.23
					C380.99,213.99,369.02,228.14,357.63,242.81z"/>
				<path id="Path_49" class="st17" d="M483.19,241.23c1.58,1.17,2.99,2.57,4.18,4.14c1.2,1.6,1.67,3.62,1.3,5.58
					c-0.4-3.72,1.73-7.25,5.2-8.64L483.19,241.23z"/>
				<g id="Group_2" transform="translate(479.743 71.77)" class="st13">
					<path id="Path_50" d="M38.07,5.71C37.34,3.76,36.49,1.85,35.54,0c-0.62,0.12-1.23,0.27-1.82,0.47
						c1.07,1.78,2.04,3.62,2.89,5.51C37.09,5.86,37.58,5.77,38.07,5.71z"/>
					<path id="Path_51" d="M74.3,30.33c0.17,0.14,0.33,0.29,0.49,0.44c-0.01-0.04-0.03-0.08-0.04-0.12
						C74.61,30.55,74.46,30.44,74.3,30.33z"/>
					<path id="Path_52" d="M16.26,33.08c0.33-0.26,0.62-0.52,0.97-0.77l-0.1-2.97l-6.67-0.07c-1.08,0.99-2.23,2.42-1.59,3.75
						L16.26,33.08z"/>
					<path id="Path_53" d="M89.16,83.01c-1.08,2.29-2.93,4.13-5.24,5.18c-1.85,0.57-3.8,0.75-5.72,0.54
						c-6.58-0.27-13.28-0.56-19.49-2.74c-2.91-1.02-5.69-2.45-8.74-3.08c-3.57-0.74-7.26-0.32-10.87,0.11l-15.93,1.87
						c-4.7,0.55-9.94,0.96-13.69-1.92c-2.15-1.65-3.53-4.21-5.89-5.54c-0.99-0.56-2.17-0.92-2.82-1.87c-0.41-0.7-0.62-1.5-0.63-2.32
						c-0.05-0.66-0.08-1.31-0.11-1.97c-0.07,1.9-0.03,3.81,0.11,5.71c0,0.81,0.22,1.61,0.62,2.32c0.62,0.94,1.82,1.3,2.82,1.87
						c2.35,1.32,3.75,3.89,5.89,5.54c3.75,2.89,8.99,2.5,13.69,1.92l15.93-1.87c3.61-0.42,7.31-0.84,10.87-0.11
						c3.02,0.62,5.81,2.06,8.74,3.08c6.24,2.18,12.91,2.5,19.49,2.74c1.92,0.21,3.87,0.03,5.72-0.54c2.31-1.05,4.16-2.88,5.24-5.18
						c2.17-4.34,3.1-9.19,2.7-14.02C91.72,76.32,90.8,79.82,89.16,83.01L89.16,83.01z"/>
				</g>
				<path id="Path_54" class="st10" d="M517.63,81.5l8.74,8.12C526.38,89.62,518.88,86.5,517.63,81.5z"/>
			</g>
			<text transform="matrix(1 0 0 1 140 790)" class="st1 st18 st19">Student Result Portal</text>
			<text transform="matrix(1 0 0 1 140 860)" class="st20 st21">Enter your USN number to find out your result.</text>
		</g>
		<g id="Group_6" transform="translate(0 30)">
			<g transform="matrix(1, 0, 0, 1, 0, -30)">
				<path id="Rectangle_2-2" d="M1397,292h371c6.63,0,12,5.37,12,12v472c0,6.63-5.37,12-12,12h-371c-6.63,0-12-5.37-12-12V304
					C1385,297.37,1390.37,292,1397,292z"/>
			</g>
			<text transform="matrix(1 0 0 1 1494 354)" class="st1 st18 st22">Results Login</text>
			<g id="Group_5" transform="translate(32 -56)">
				<g id="Rectangle_4" transform="translate(1461 675)">
					<path class="st6" d="M9,0h162c4.97,0,9,4.03,9,9v45c0,4.97-4.03,9-9,9H9c-4.97,0-9-4.03-9-9V9C0,4.03,4.03,0,9,0z"/>
					<path class="st3" d="M9,0.5h162c4.69,0,8.5,3.81,8.5,8.5v45c0,4.69-3.81,8.5-8.5,8.5H9c-4.69,0-8.5-3.81-8.5-8.5V9
						C0.5,4.31,4.31,0.5,9,0.5z"/>
				</g>
				<text transform="matrix(1 0 0 1 1514 715)" class="st1 st18 st23">SUBMIT</text>
			</g>
			<g id="Group_4" transform="translate(5 -28)">
				<text transform="matrix(1 0 0 1 1431 498)" class="st1 st18 st23">Enter USN Number</text>
				<g id="Rectangle_3" transform="translate(1431 514)">
					<path class="st2" d="M7,0h280c3.87,0,7,3.13,7,7v34c0,3.87-3.13,7-7,7H7c-3.87,0-7-3.13-7-7V7C0,3.13,3.13,0,7,0z"/>
					<path class="st3" d="M7,0.5h280c3.59,0,6.5,2.91,6.5,6.5v34c0,3.59-2.91,6.5-6.5,6.5H7c-3.59,0-6.5-2.91-6.5-6.5V7
						C0.5,3.41,3.41,0.5,7,0.5z"/>
				</g>
			</g>
		</g>
	</g>
</g>
</svg>
