<?xml version="1.0" encoding="utf-8"?>
<!-- Generator: Adobe Illustrator 23.0.2, SVG Export Plug-In . SVG Version: 6.00 Build 0)  -->
<svg version="1.1" id="Layer_1" xmlns="http://www.w3.org/2000/svg" xmlns:xlink="http://www.w3.org/1999/xlink" x="0px" y="0px"
	 viewBox="0 0 1920 1080" style="enable-background:new 0 0 1920 1080;" xml:space="preserve">
<style type="text/css">
	.st0{clip-path:url(#SVGID_2_);}
	.st1{fill:#FFFFFF;}
	.st2{fill:#424242;}
	.st3{fill:none;stroke:#707070;}
	.st4{font-family:'Arial-BoldMT';}
	.st5{font-size:31px;}
	.st6{fill:#8762A3;}
	.st7{font-size:22px;}
	.st8{fill:#F2F2F2;}
	.st9{fill:#3F3D56;}
	.st10{fill:#2F2E41;}
	.st11{fill:#FFB9B9;}
	.st12{opacity:0.1;enable-background:new    ;}
	.st13{fill:#575A89;}
	.st14{display:none;fill:#8762A3;}
	.st15{display:none;opacity:0.3;fill:#8762A3;enable-background:new    ;}
	.st16{display:none;fill:#3F3D56;}
</style>
<g>
	<g>
		<defs>
			<rect id="SVGID_1_" y="0" width="1920" height="1080"/>
		</defs>
		<clipPath id="SVGID_2_">
			<use xlink:href="#SVGID_1_"  style="overflow:visible;"/>
		</clipPath>
		<g id="Web_1920_1" class="st0">
			<rect y="0" class="st1" width="1920" height="1080"/>
			<g id="Rectangle_5">
				<rect y="0" class="st2" width="1920" height="1080"/>
				<rect x="0.5" y="0.5" class="st3" width="1919" height="1079"/>
			</g>
			<path id="Path_55" d="M0,0v1080.8h950L1250,0H0z"/>
			<g id="Group_6" transform="translate(0 30)">
				<g transform="matrix(1, 0, 0, 1, 0, -30)">
					<path id="Rectangle_2-2" d="M1397,292h371c6.6,0,12,5.4,12,12v472c0,6.6-5.4,12-12,12h-371c-6.6,0-12-5.4-12-12V304
						C1385,297.4,1390.4,292,1397,292z"/>
				</g>
				<text transform="matrix(1 0 0 1 1494 354)" class="st1 st4 st5">Results Login</text>
				<g id="Group_5" transform="translate(32 -56)">
					<g id="Rectangle_4" transform="translate(1461 675)">
						<path class="st6" d="M9,0h162c5,0,9,4,9,9v45c0,5-4,9-9,9H9c-5,0-9-4-9-9V9C0,4,4,0,9,0z"/>
						<path class="st3" d="M9,0.5h162c4.7,0,8.5,3.8,8.5,8.5v45c0,4.7-3.8,8.5-8.5,8.5H9c-4.7,0-8.5-3.8-8.5-8.5V9
							C0.5,4.3,4.3,0.5,9,0.5z"/>
					</g>
					<text transform="matrix(1 0 0 1 1514 715)" class="st1 st4 st7">SUBMIT</text>
				</g>
				<g id="Group_4" transform="translate(5 -28)">
					<text transform="matrix(1 0 0 1 1431 498)" class="st1 st4 st7">Enter USN Number</text>
					<g id="Rectangle_3" transform="translate(1431 514)">
						<path class="st2" d="M7,0h280c3.9,0,7,3.1,7,7v34c0,3.9-3.1,7-7,7H7c-3.9,0-7-3.1-7-7V7C0,3.1,3.1,0,7,0z"/>
						<path class="st3" d="M7,0.5h280c3.6,0,6.5,2.9,6.5,6.5v34c0,3.6-2.9,6.5-6.5,6.5H7c-3.6,0-6.5-2.9-6.5-6.5V7
							C0.5,3.4,3.4,0.5,7,0.5z"/>
					</g>
				</g>
			</g>
		</g>
	</g>
</g>
<path class="st8" d="M704.2,111.7l-151,168.6c32.7,25.3,38.6,72.4,13.3,105.1C541,418,494,423.9,461.3,398.6
	c-2.8-2.2-5.4-4.5-7.9-7.1L243,626.4c60.7,47.1,135.3,72.7,212.2,72.6c191.3,0,346.4-155.1,346.4-346.4
	C801.7,262.6,766.8,176.2,704.2,111.7z"/>
<circle class="st8" cx="509.8" cy="343.3" r="45.2"/>
<rect x="237.9" y="427.2" class="st9" width="493.8" height="311.1"/>
<path class="st10" d="M780.2,273c0,0-31.8-1.3-32.7,31.4c-0.9,32.7,0,60.6,0,60.6h63.7v-58.9C811.2,306.1,809.9,275.1,780.2,273z"/>
<path class="st11" d="M767.8,331.2c0,0,1.9,21.4-4.4,23.3c-6.3,1.9,2.5,29,2.5,29l25.2,5.7l14.5-29l-6.3-8.2c0,0-10.7-14.5-5.7-24.6
	C798.7,317.4,767.8,331.2,767.8,331.2z"/>
<path class="st12" d="M767.8,331.2c0,0,1.9,21.4-4.4,23.3c-6.3,1.9,2.5,29,2.5,29l25.2,5.7l14.5-29l-6.3-8.2c0,0-10.7-14.5-5.7-24.6
	C798.7,317.4,767.8,331.2,767.8,331.2z"/>
<circle class="st11" cx="776.6" cy="316.7" r="24.6"/>
<path class="st11" d="M680.9,401.1c0,0-15.1,11.3-10.7,20.2c4.4,8.8,17.6,39,17.6,39s2.5,23.3,13.2,22c10.7-1.3,0-24.6,0-24.6
	l-13.2-35.9l4.4-6.9L680.9,401.1z"/>
<path class="st11" d="M884.9,404.9c0,0,17,13.2,6.9,18.3s-52.9,29-52.9,29s-25.8,19.5-29,4.4c-3.1-15.1,17-14.5,17-14.5
	s40.3-24.6,42.2-29.6C871.1,407.4,884.9,404.9,884.9,404.9z"/>
<path class="st13" d="M735,491.2c0,0-8.2,44.7-3.8,69.9c2.6,15.7,2.2,31.7-1.3,47.2l24.6,2.5c0,0,15.7-93.2,24.6-92.6
	c8.8,0.6,27.7,93.8,27.7,93.8l26.5-3.8c0,0-8.2-41.6-4.4-54.2c3.8-12.6,1.3-57.9-8.2-63C811.2,486.2,735,491.2,735,491.2z"/>
<path class="st10" d="M757.1,608.3c0,0-28.3-9.4-30.9-2.5s-1.9,84.4-1.3,89.4c0.6,5,2.5,2.5,0.6,5c-1.9,2.5-1.9-3.1-1.3,3.8
	c0.6,6.9,1.3,8.2,1.3,8.2s-11.3,26.5,8.8,25.8c20.2-0.6,10.7-19.5,10.7-19.5s3.1-5.7,1.3-8.8s-2.5-8.2,0-10.7s-2.5-7.6-3.1-9.4
	c-0.6-1.9-2.5-1.3,2.5-7.6c5-6.3,2.5-9.4,1.9-11.3c-0.6-1.9,4.4-13.2,4.4-13.2L757.1,608.3z"/>
<path class="st10" d="M804.9,608.3c0,0,28.3-9.4,30.9-2.5s1.9,84.4,1.3,89.4c-0.6,5-2.5,2.5-0.6,5s1.9-3.1,1.3,3.8
	c-0.6,6.9-1.3,8.2-1.3,8.2s11.3,26.5-8.8,25.8c-20.2-0.6-10.7-19.5-10.7-19.5s-3.1-5.7-1.3-8.8c1.9-3.1,2.5-8.2,0-10.7
	s2.5-7.6,3.1-9.4c0.6-1.9,2.5-1.3-2.5-7.6c-5-6.3-2.5-9.4-1.9-11.3s-4.4-13.2-4.4-13.2L804.9,608.3z"/>
<path class="st6" d="M777.9,374.7c0,0-4.4-13.2-6.9-15.7s-4.2-9-4.2-9s-14.1,5.3-17.9,6.5c-3.8,1.3-16.4,1.3-16.4,3.1v40.3
	c0,0-1.3,8.2,1.3,29c2.5,20.8,10.1,33.4,1.3,42.2c-8.8,8.8-1.3,30.2,3.1,34s90.1,23.3,90.7-22.7c0,0-20.8-36.5-12-48.5
	c8.8-12,16.4-32.1,16.4-32.1v-40.3c0,0-13.9-4.4-18.3-5c-4.4-0.6-15.1-12.6-16.4-12c-1.3,0.6-3.7,0-3.7,0l-0.1,8.8L777.9,374.7z"/>
<path class="st6" d="M741.3,362.7l-8.8-3.1c0,0-10.7,5.7-10.7,6.9s-6.3,6.9-9.4,9.4c-3.1,2.5-12,3.1-12,4.4
	c0,1.3-27.7,21.4-25.2,24.6s10.7,14.5,15.1,14.5c4.4,0,15.1-11.3,17-12c1.9-0.6,21.4-12.6,27.7-10.7S741.3,362.7,741.3,362.7z"/>
<path class="st6" d="M821.3,364l12-2.5c0,0,22.7,17,23.3,17.6s35.9,23.3,34,27.7c-1.9,4.4-22,10.7-27.1,8.8
	c-5-1.9-26.5-17.6-34.6-15.7C820.7,401.8,821.3,364,821.3,364z"/>
<path class="st10" d="M802.7,308.9c3-12.6,1.8-15.9,1.8-15.9l-38.3-9.5l-13.3,12.9v13.3l1.3,4.2c0,0,5.5-4.2,3.4-10.2
	C757.6,303.7,800.6,317.9,802.7,308.9z"/>
<path class="st10" d="M803.2,301.8l-3.6,3.9c5.7,0.1-1.9,46.1,0.6,53.5l9.4,0.2v-61.3L803.2,301.8z"/>
<ellipse class="st11" cx="753" cy="313" rx="1.9" ry="4.1"/>
<ellipse class="st11" cx="801.5" cy="313" rx="1.9" ry="4.1"/>
<polygon class="st10" points="459.6,667.5 458.5,666.4 507.1,617.7 464.1,574.7 465.2,573.6 509.4,617.7 "/>
<circle class="st6" cx="505.5" cy="618.1" r="16.8"/>
<circle class="st6" cx="461.5" cy="666.9" r="16.8"/>
<polygon class="st10" points="462.8,574.7 461.7,573.6 510.3,524.9 467.3,481.9 468.4,480.8 512.6,524.9 "/>
<circle class="st6" cx="467.9" cy="481.3" r="16.8"/>
<circle class="st6" cx="508.7" cy="525.3" r="16.8"/>
<circle class="st14" cx="464.7" cy="574.1" r="16.8"/>
<rect x="259.9" y="446.9" class="st15" width="83.2" height="15.2"/>
<rect x="591.9" y="618.9" class="st15" width="83.2" height="4"/>
<rect x="591.9" y="630.9" class="st15" width="83.2" height="4"/>
<rect x="591.9" y="642.9" class="st15" width="83.2" height="4"/>
<rect x="591.9" y="654.9" class="st15" width="83.2" height="4"/>
<rect x="591.9" y="666.9" class="st15" width="83.2" height="4"/>
<rect x="591.9" y="678.9" class="st15" width="83.2" height="4"/>
<path class="st16" d="M214.9,706.1c5.5,20.4,24.5,33.1,24.5,33.1s10-20.5,4.4-40.9c-5.5-20.4-24.5-33.1-24.5-33.1
	S209.3,685.6,214.9,706.1z"/>
<path class="st14" d="M223,701.7c15.2,14.8,17,37.5,17,37.5s-22.8-1.2-37.9-16c-15.2-14.8-17-37.5-17-37.5S207.8,686.9,223,701.7z"
	/>
<rect x="161.5" y="737.3" class="st16" width="828.8" height="1.6"/>
<path class="st16" d="M944.3,688.1c0-7.3-4.5-13.8-11.2-16.4c9.1-3.5,13.6-13.7,10-22.8c-3.5-9.1-13.7-13.6-22.8-10
	c-9.1,3.5-13.6,13.7-10,22.8c1.8,4.6,5.4,8.2,10,10c-9.1,3.5-13.5,13.7-10,22.8c1.8,4.6,5.4,8.2,10,10c-9.1,3.5-13.6,13.7-10,22.8
	s13.7,13.6,22.8,10c9.1-3.5,13.6-13.7,10-22.8c-1.8-4.6-5.4-8.2-10-10C939.8,701.9,944.2,695.4,944.3,688.1z M910.7,655.3
	c0-8.8,7.1-16,16-16c8.8,0,16,7.2,16,16c0,7.5-5.1,13.9-12.4,15.6c-2.4-0.5-4.8-0.5-7.2,0C915.8,669.2,910.7,662.7,910.7,655.3z
	 M942.7,720.9c0,8.8-7.2,16-16,16c-8.8,0-16-7.1-16-16c0-7.5,5.1-13.9,12.4-15.6c2.4,0.5,4.8,0.5,7.2,0
	C937.5,707,942.6,713.5,942.7,720.9z M930.3,703.7c-2.4-0.5-4.8-0.5-7.2,0c-8.6-2-14-10.6-12-19.2c1.4-6,6-10.6,12-12
	c2.4,0.5,4.8,0.5,7.2,0c8.6,2,14,10.6,12,19.2C940.9,697.7,936.2,702.3,930.3,703.7z"/>
<path class="st16" d="M246.7,396.9c-9.7,0-17.6-7.9-17.6-17.6s7.9-17.6,17.6-17.6c9.7,0,17.6,7.9,17.6,17.6
	C264.2,389,256.4,396.9,246.7,396.9z M246.7,363.3c-8.8,0-16,7.2-16,16s7.2,16,16,16c8.8,0,16-7.2,16-16
	C262.6,370.5,255.5,363.3,246.7,363.3z"/>
<path class="st16" d="M620.3,221.7c-9.7,0-17.6-7.9-17.6-17.6s7.9-17.6,17.6-17.6s17.6,7.9,17.6,17.6l0,0
	C637.8,213.8,630,221.7,620.3,221.7z M620.3,188.1c-8.8,0-16,7.2-16,16c0,8.8,7.2,16,16,16c8.8,0,16-7.2,16-16
	C636.2,195.3,629.1,188.1,620.3,188.1z"/>
</svg>
